<?xml version="1.0" standalone="no"?>
<!DOCTYPE svg PUBLIC "-//W3C//DTD SVG 20010904//EN"
 "http://www.w3.org/TR/2001/REC-SVG-20010904/DTD/svg10.dtd">
<svg version="1.0" xmlns="http://www.w3.org/2000/svg"
 width="512.000000pt" height="512.000000pt" viewBox="0 0 512.000000 512.000000"
 preserveAspectRatio="xMidYMid meet">
<metadata>
Created by potrace 1.14, written by Peter Selinger 2001-2017
</metadata>
<g transform="translate(0.000000,512.000000) scale(0.100000,-0.100000)"
fill="#000000" stroke="none">
<path d="M0 4275 c0 -742 2 -846 15 -851 8 -4 15 -11 15 -16 0 -6 -7 -8 -15
-4 -13 5 -15 -19 -15 -182 l1 -187 21 45 c11 25 33 58 48 73 26 26 33 29 86
25 l57 -3 -5 140 c-3 77 -2 122 2 100 4 -24 7 24 7 120 -1 125 -2 142 -7 80
-6 -73 -7 -67 -9 60 -1 77 -4 190 -6 250 -9 219 -14 607 -8 621 3 8 8 12 13 9
4 -2 5 7 2 22 -7 37 21 25 29 -13 5 -23 7 -24 8 -6 0 12 5 22 11 22 5 0 8 18
6 40 -2 22 0 40 5 40 5 0 9 -7 9 -16 0 -8 4 -12 10 -9 6 3 10 1 10 -4 0 -6 -4
-11 -10 -11 -5 0 -10 -14 -10 -31 0 -25 3 -29 13 -20 8 6 17 8 21 4 4 -4 9 2
12 14 9 32 34 38 34 8 0 -13 4 -26 9 -30 14 -8 29 24 23 48 -4 16 -2 19 12 14
10 -4 20 -7 22 -7 2 0 4 -16 4 -35 0 -19 4 -35 8 -35 4 0 6 15 4 34 -4 36 14
58 29 35 7 -11 12 -12 28 -2 17 11 21 10 26 -8 4 -12 2 -26 -4 -32 -6 -6 -11
-16 -11 -21 0 -6 4 -4 10 4 10 16 82 22 116 9 13 -5 26 -3 34 4 10 9 14 9 17
-1 3 -8 14 -3 34 15 34 33 60 35 76 8 9 -16 23 -20 72 -22 60 -1 66 2 62 35
-1 6 5 12 14 12 9 0 18 -13 23 -32 7 -33 7 -33 12 12 4 32 10 46 23 48 11 2
17 -3 17 -14 0 -13 3 -15 11 -7 8 8 8 17 -1 33 -11 20 -10 21 9 10 12 -6 21
-21 21 -33 0 -12 4 -28 9 -35 6 -10 10 -8 15 10 5 19 8 20 16 8 8 -13 10 -12
10 4 0 14 6 17 24 14 17 -4 23 -1 19 9 -4 9 0 11 11 7 12 -4 16 0 16 15 0 25
15 28 24 5 4 -9 13 -14 21 -10 9 3 15 0 15 -9 0 -23 48 -11 83 22 56 54 222
179 275 208 29 16 52 35 53 44 0 10 2 12 6 4 2 -7 12 -13 21 -13 13 0 17 9 16
43 -3 61 -3 62 -15 50 -6 -6 -18 -9 -27 -6 -10 4 -13 2 -8 -5 4 -7 3 -12 -2
-12 -6 0 -12 7 -16 15 -4 10 -14 13 -34 9 -33 -7 -72 10 -72 30 0 10 -11 11
-47 6 -27 -5 -52 -5 -57 -2 -5 3 -6 0 -2 -6 4 -7 2 -12 -3 -12 -15 0 -14 37 1
46 6 4 14 2 16 -5 3 -8 9 -5 19 8 8 13 19 18 26 14 23 -15 57 -10 57 9 0 17
-13 18 -175 18 -149 0 -175 -2 -175 -15 0 -8 -4 -15 -10 -15 -5 0 -10 -6 -10
-14 0 -16 -34 -31 -50 -21 -13 8 -13 35 0 35 6 0 10 7 10 15 0 12 -16 15 -81
15 -54 0 -78 -3 -74 -11 4 -6 13 -8 21 -5 19 7 18 -12 -3 -32 -22 -22 -62 -25
-81 -5 -14 14 -14 17 3 29 10 7 21 11 26 9 4 -3 10 -1 14 5 4 6 -10 10 -37 10
l-44 0 4 -39 c3 -34 1 -39 -20 -44 -28 -6 -59 -4 -75 6 -6 4 -14 3 -18 -3 -3
-5 -17 -10 -29 -10 -16 0 -26 -7 -29 -21 -8 -30 -24 -15 -21 18 2 15 5 42 7
60 l3 32 -238 1 -238 0 0 -54 c0 -45 3 -54 20 -59 26 -7 26 -37 0 -44 -15 -4
-20 -16 -23 -57 -2 -28 -4 2 -5 67 -1 70 -6 117 -12 117 -5 0 -10 7 -10 15 0
12 -16 15 -85 15 l-85 0 0 -845z m1050 826 c0 -16 -31 -42 -41 -35 -6 3 -3 14
8 24 20 21 33 25 33 11z m-563 -23 c20 -19 31 -48 19 -48 -2 0 -12 -3 -22 -7
-13 -5 -16 -3 -11 9 3 10 0 19 -9 22 -14 5 -20 46 -7 46 4 0 17 -10 30 -22z
m883 -13 c0 -2 -7 -5 -15 -9 -9 -3 -15 0 -15 9 0 9 6 12 15 9 8 -4 15 -7 15
-9z m-985 -26 c12 -19 -5 -23 -22 -6 -16 16 -16 17 -1 17 9 0 20 -5 23 -11z
m45 -29 c0 -19 -7 -33 -20 -40 -17 -9 -20 -8 -20 11 0 15 5 19 15 15 11 -4 15
1 15 19 0 14 2 25 5 25 3 0 5 -13 5 -30z m178 18 c-2 -6 -10 -14 -16 -16 -7
-2 -10 2 -6 12 7 18 28 22 22 4z m-431 -30 c-3 -8 -6 -5 -6 6 -1 11 2 17 5 13
3 -3 4 -12 1 -19z m113 -43 c6 -4 18 1 25 11 11 15 14 16 15 4 0 -8 -12 -26
-25 -39 -33 -31 -34 -71 -1 -71 32 0 42 -26 13 -34 -18 -5 -19 -8 -8 -15 21
-13 54 6 48 27 -3 10 -8 25 -12 35 -5 13 -2 17 13 17 11 0 23 -8 26 -18 7 -22
45 -26 53 -6 7 19 43 18 43 -1 0 -17 20 -56 34 -66 10 -8 0 -14 -37 -23 -33
-8 -43 8 -28 47 6 14 6 29 2 32 -5 2 -14 -15 -20 -40 -7 -27 -17 -45 -25 -45
-19 0 -39 -63 -30 -92 6 -20 5 -21 -10 -9 -19 16 -25 12 -31 -18 -5 -28 -14
-41 -27 -41 -5 0 -7 7 -4 16 4 10 -1 22 -10 29 -20 14 -10 37 11 28 8 -3 15 0
15 7 0 7 8 9 19 5 16 -5 18 -2 14 15 -3 12 -11 19 -19 16 -7 -3 -17 0 -21 7
-9 14 -43 19 -43 6 0 -5 -4 -9 -10 -9 -11 0 -14 103 -4 113 4 4 8 23 10 43 2
19 6 44 9 55 4 11 2 19 -4 19 -6 0 -11 10 -10 23 l0 22 9 -21 c5 -12 14 -25
20 -29z m218 33 c-6 -18 -48 -30 -48 -13 0 12 14 20 43 24 5 0 7 -4 5 -11z
m27 3 c3 -5 1 -12 -5 -16 -5 -3 -10 1 -10 9 0 18 6 21 15 7z m15 -121 c0 -5
-4 -10 -10 -10 -5 0 -10 5 -10 10 0 6 5 10 10 10 6 0 10 -4 10 -10z m-318 -62
c-2 -10 -10 -14 -20 -11 -11 5 -14 2 -10 -9 4 -8 2 -21 -3 -29 -6 -10 -9 -5
-9 16 0 42 11 76 21 69 5 -3 9 1 10 8 0 7 4 4 8 -7 4 -11 6 -27 3 -37z m318
16 c0 -10 6 -14 14 -11 19 8 33 -32 15 -43 -14 -9 -39 -2 -39 11 0 5 5 9 12 9
6 0 4 7 -5 18 -19 21 -22 32 -7 32 6 0 10 -7 10 -16z m660 -41 c0 -15 -6 -23
-16 -23 -11 0 -14 5 -10 16 3 9 6 25 6 37 0 18 2 19 10 7 5 -8 10 -25 10 -37z
m-410 9 c0 -5 -7 -17 -15 -28 -15 -19 -20 -8 -9 20 6 17 24 22 24 8z m-65 -42
c-3 -5 -11 -10 -16 -10 -6 0 -7 5 -4 10 3 6 11 10 16 10 6 0 7 -4 4 -10z m380
-50 c3 -5 1 -10 -4 -10 -6 0 -11 5 -11 10 0 6 2 10 4 10 3 0 8 -4 11 -10z m39
-15 c3 -8 1 -15 -3 -15 -5 0 -11 7 -15 15 -3 8 -1 15 3 15 5 0 11 -7 15 -15z
m-484 -79 c0 -3 -4 -8 -10 -11 -5 -3 -10 -1 -10 4 0 6 5 11 10 11 6 0 10 -2
10 -4z m-463 -1098 c-3 -8 -6 -5 -6 6 -1 11 2 17 5 13 3 -3 4 -12 1 -19z"/>
<path d="M390 4800 c0 -5 7 -10 16 -10 8 0 12 5 9 10 -3 6 -10 10 -16 10 -5 0
-9 -4 -9 -10z"/>
<path d="M755 5110 c4 -6 11 -8 16 -5 14 9 11 15 -7 15 -8 0 -12 -5 -9 -10z"/>
<path d="M1540 5106 c0 -17 48 -16 55 2 3 8 -6 12 -25 12 -19 0 -30 -5 -30
-14z"/>
<path d="M1620 5112 c0 -4 9 -13 20 -19 20 -13 37 -2 25 17 -7 12 -45 14 -45
2z"/>
<path d="M1695 5110 c27 -12 35 -12 35 0 0 6 -12 10 -27 9 -25 0 -26 -1 -8 -9z"/>
<path d="M2168 5113 c7 -3 16 -2 19 1 4 3 -2 6 -13 5 -11 0 -14 -3 -6 -6z"/>
<path d="M2258 5113 c6 -2 18 -2 25 0 6 3 1 5 -13 5 -14 0 -19 -2 -12 -5z"/>
<path d="M2558 5108 c12 -6 22 -15 22 -20 0 -4 5 -8 10 -8 6 0 10 6 10 14 0
10 13 16 38 19 20 2 6 4 -33 5 -57 0 -66 -1 -47 -10z"/>
<path d="M2755 5113 c11 -3 22 -9 25 -14 3 -4 16 -6 28 -2 35 9 15 23 -31 22
-23 -1 -33 -4 -22 -6z"/>
<path d="M2855 5110 c3 -5 10 -10 16 -10 5 0 9 5 9 10 0 6 -7 10 -16 10 -8 0
-12 -4 -9 -10z"/>
<path d="M2996 5105 c-3 -8 -1 -15 4 -15 6 0 10 7 10 15 0 8 -2 15 -4 15 -2 0
-6 -7 -10 -15z"/>
<path d="M3030 5101 c0 -14 6 -19 24 -17 22 3 23 1 15 -20 -10 -28 6 -32 37
-9 25 19 31 19 37 -5 8 -30 37 -25 37 6 0 21 3 24 14 15 11 -9 15 -8 20 5 16
41 10 44 -89 44 -87 0 -95 -2 -95 -19z"/>
<path d="M3230 5086 c0 -37 17 -57 30 -36 5 8 20 11 39 8 27 -4 31 -2 25 15
-6 19 -5 19 30 -2 32 -20 38 -21 51 -7 8 8 15 24 15 35 0 20 -6 21 -95 21
l-95 0 0 -34z"/>
<path d="M3440 5085 c0 -19 5 -35 10 -35 6 0 10 -9 10 -20 0 -13 7 -20 20 -20
12 0 20 7 20 16 0 10 6 14 15 10 8 -3 20 3 27 13 7 9 20 21 28 26 13 8 13 7 0
-11 -8 -10 -19 -22 -25 -26 -6 -5 -6 -11 2 -19 10 -10 15 -6 23 15 9 26 10 26
35 10 l25 -16 0 46 0 46 -95 0 -95 0 0 -35z"/>
<path d="M3651 5063 c0 -35 3 -51 8 -40 6 18 8 18 21 2 7 -9 22 -21 33 -26 16
-9 18 -7 17 18 -3 44 -1 55 10 48 6 -3 10 -27 10 -52 0 -36 3 -43 13 -35 10 8
16 6 25 -9 22 -35 44 1 50 82 l5 69 -97 0 -96 0 1 -57z"/>
<path d="M3860 5044 l0 -76 36 21 36 21 34 -29 c19 -17 40 -28 48 -25 34 13
47 122 19 152 -7 7 -41 12 -92 12 l-81 0 0 -76z"/>
<path d="M4080 5094 c-14 -36 -12 -96 4 -117 14 -18 15 -18 25 0 10 17 10 17
11 1 0 -10 5 -18 10 -18 6 0 10 4 10 9 0 6 12 6 30 1 23 -7 30 -5 30 6 0 16
16 19 25 4 8 -12 35 -1 35 15 0 7 -8 16 -17 20 -17 6 -17 7 0 19 11 8 17 27
17 50 l0 36 -85 0 c-83 0 -86 -1 -95 -26z m25 -53 c3 -5 1 -12 -5 -16 -5 -3
-10 1 -10 9 0 18 6 21 15 7z"/>
<path d="M4280 5085 c0 -21 5 -34 11 -32 6 1 14 -4 16 -10 3 -7 -2 -13 -11
-13 -12 0 -16 -11 -16 -50 0 -60 12 -65 29 -10 13 43 34 52 50 21 6 -11 24
-20 45 -23 l35 -4 -15 35 c-15 35 -10 57 6 31 8 -13 10 -12 10 3 0 9 7 17 15
17 10 0 15 11 15 35 l0 35 -95 0 -95 0 0 -35z"/>
<path d="M4490 5053 c0 -44 3 -63 9 -54 5 8 7 21 4 30 -3 12 0 11 11 -3 12
-15 16 -16 17 -5 0 8 5 4 11 -8 14 -28 32 -29 51 -3 14 20 14 20 31 -5 31 -47
46 -32 46 45 l0 70 -90 0 -90 0 0 -67z"/>
<path d="M4690 5049 c0 -68 1 -71 21 -66 28 7 63 -31 47 -51 -6 -7 -8 -16 -4
-19 4 -4 11 -1 15 6 5 8 17 11 30 7 11 -3 30 -9 41 -12 16 -4 20 -1 20 17 0
18 -3 20 -12 11 -7 -7 -17 -12 -22 -12 -6 0 -5 4 2 8 10 7 8 14 -8 34 -13 17
-16 28 -9 30 9 3 9 9 0 26 -8 15 -8 22 -1 22 6 0 15 -12 21 -26 9 -26 10 -26
24 -8 8 10 15 38 15 62 l0 42 -90 0 -90 0 0 -71z m90 -21 c0 -13 -32 -6 -37 9
-3 7 3 9 16 6 12 -3 21 -10 21 -15z m-5 -40 c4 -10 13 -18 21 -18 8 0 14 -4
14 -10 0 -21 -38 -9 -44 14 -3 13 -15 26 -26 29 -11 3 -20 10 -20 16 0 17 49
-9 55 -31z"/>
<path d="M4891 5058 c0 -50 2 -58 10 -39 l9 23 26 -25 c14 -14 31 -24 38 -21
7 3 18 -7 24 -20 11 -24 42 -28 42 -5 0 5 7 9 15 9 12 0 15 14 15 70 l0 70
-90 0 -90 0 1 -62z m88 -48 c-16 -11 -29 -4 -29 16 0 12 4 13 21 3 17 -9 19
-13 8 -19z"/>
<path d="M5090 5014 c0 -80 3 -105 13 -102 8 3 13 36 15 106 3 88 1 102 -12
102 -14 0 -16 -16 -16 -106z"/>
<path d="M2696 5095 c-3 -8 -3 -15 0 -15 3 0 12 7 20 15 13 13 13 15 1 15 -8
0 -17 -7 -21 -15z"/>
<path d="M3600 5020 c0 -5 5 -10 11 -10 5 0 7 5 4 10 -3 6 -8 10 -11 10 -2 0
-4 -4 -4 -10z"/>
<path d="M1717 5007 c-4 -10 -7 -30 -7 -43 0 -22 2 -23 20 -12 10 7 15 15 11
18 -5 3 -11 16 -13 30 -3 22 -4 23 -11 7z"/>
<path d="M3910 4983 c0 -5 5 -15 10 -23 8 -12 10 -11 10 8 0 12 -4 22 -10 22
-5 0 -10 -3 -10 -7z"/>
<path d="M2370 4934 c0 -27 -31 -47 -38 -25 -3 10 -6 10 -12 2 -9 -16 -60 4
-60 24 0 19 -46 20 -53 1 -6 -15 22 -46 40 -46 6 0 24 -15 41 -34 17 -19 33
-32 36 -29 3 3 10 -6 15 -20 14 -36 62 -107 72 -107 5 0 9 7 9 15 0 8 6 15 13
15 10 0 14 17 14 60 0 41 6 67 17 79 21 23 20 31 -4 31 -11 0 -23 7 -26 15 -4
8 -12 15 -20 15 -8 0 -14 4 -14 9 0 5 -7 11 -15 15 -11 4 -15 -2 -15 -20z"/>
<path d="M4452 4935 c0 -16 2 -22 5 -12 2 9 2 23 0 30 -3 6 -5 -1 -5 -18z"/>
<path d="M5041 4938 c0 -13 3 -17 6 -10 2 6 9 10 14 6 5 -3 9 2 9 10 0 9 -7
16 -15 16 -9 0 -15 -9 -14 -22z"/>
<path d="M4356 4924 c-17 -12 -17 -14 -4 -14 9 0 20 5 23 11 11 17 2 18 -19 3z"/>
<path d="M4567 4932 c-3 -4 17 -9 45 -10 29 -1 49 0 46 3 -10 10 -86 16 -91 7z"/>
<path d="M4530 4920 c0 -5 5 -10 11 -10 5 0 7 5 4 10 -3 6 -8 10 -11 10 -2 0
-4 -4 -4 -10z"/>
<path d="M4408 4913 c7 -3 16 -2 19 1 4 3 -2 6 -13 5 -11 0 -14 -3 -6 -6z"/>
<path d="M2628 4893 c7 -3 16 -2 19 1 4 3 -2 6 -13 5 -11 0 -14 -3 -6 -6z"/>
<path d="M4420 4880 c0 -5 4 -10 9 -10 6 0 13 5 16 10 3 6 -1 10 -9 10 -9 0
-16 -4 -16 -10z"/>
<path d="M4507 4879 c8 -8 16 -8 30 0 16 9 14 10 -11 11 -22 0 -27 -3 -19 -11z"/>
<path d="M4590 4880 c20 -13 47 -13 55 0 4 6 -9 10 -32 10 -28 0 -34 -3 -23
-10z"/>
<path d="M3064 4805 c-3 -8 -10 -13 -14 -10 -15 9 -40 -57 -40 -107 0 -47 1
-49 18 -32 16 17 17 17 20 -4 4 -25 15 -28 31 -8 7 8 23 17 37 20 23 6 24 9
18 54 -7 56 -18 78 -44 92 -16 9 -22 8 -26 -5z m46 -46 c0 -5 -7 -9 -15 -9
-15 0 -20 12 -9 23 8 8 24 -1 24 -14z m-50 -39 c0 -5 -5 -10 -11 -10 -5 0 -7
5 -4 10 3 6 8 10 11 10 2 0 4 -4 4 -10z m50 -40 c0 -5 -7 -7 -15 -4 -8 4 -15
8 -15 10 0 2 7 4 15 4 8 0 15 -4 15 -10z"/>
<path d="M3440 4770 c0 -30 13 -40 25 -20 8 13 -4 50 -16 50 -5 0 -9 -13 -9
-30z"/>
<path d="M2715 4750 c-3 -5 -20 -6 -38 -3 -29 6 -31 5 -18 -10 7 -9 24 -17 37
-17 13 0 24 -5 24 -12 0 -12 29 21 30 33 0 11 -29 19 -35 9z"/>
<path d="M2576 4723 c-6 -14 -5 -15 5 -6 7 7 10 15 7 18 -3 3 -9 -2 -12 -12z"/>
<path d="M2791 4714 c0 -11 3 -14 6 -6 3 7 2 16 -1 19 -3 4 -6 -2 -5 -13z"/>
<path d="M2960 4661 c0 -11 5 -23 11 -26 13 -8 15 -6 23 23 6 18 3 22 -13 22
-14 0 -21 -6 -21 -19z"/>
<path d="M1201 4614 c0 -11 3 -14 6 -6 3 7 2 16 -1 19 -3 4 -6 -2 -5 -13z"/>
<path d="M223 3980 c0 -36 2 -50 4 -32 2 17 2 47 0 65 -2 17 -4 3 -4 -33z"/>
<path d="M2320 3855 c-244 -49 -578 -176 -761 -290 -223 -139 -399 -260 -504
-345 -38 -31 -115 -88 -170 -127 -55 -39 -150 -116 -211 -171 -61 -54 -125
-107 -141 -117 l-30 -18 25 -38 c13 -21 39 -43 56 -50 17 -7 53 -26 79 -41 57
-33 65 -34 120 -9 23 10 78 25 122 31 44 7 91 16 105 20 16 4 44 0 76 -11 29
-10 71 -21 95 -25 24 -3 63 -15 86 -26 24 -11 48 -16 55 -12 19 12 296 221
348 264 102 83 185 143 360 261 101 68 189 126 194 128 30 12 95 59 89 65 -10
10 -35 7 -28 -4 3 -6 -1 -13 -10 -16 -11 -4 -26 3 -43 19 -21 22 -23 28 -13
41 18 21 34 9 28 -20 -2 -14 0 -27 6 -31 5 -3 7 -1 4 4 -4 6 0 16 8 23 7 6 11
18 8 26 -3 8 0 14 6 14 6 0 11 7 11 15 0 18 12 19 28 3 6 -6 22 -13 34 -15 12
-2 27 -9 33 -15 7 -7 7 -9 -1 -5 -6 3 -11 0 -11 -7 0 -15 17 -9 97 34 102 55
288 108 411 116 l85 7 -9 41 c-17 75 -40 116 -93 172 -56 58 -137 102 -201
109 -31 4 -34 3 -13 -4 17 -6 20 -9 8 -10 -20 -1 -24 -27 -6 -33 7 -3 2 -7
-11 -11 -17 -4 -21 -2 -17 9 3 8 1 14 -4 14 -5 0 -10 10 -12 23 -3 21 -7 22
-113 23 -60 1 -139 -4 -175 -11z m190 1 c0 -3 -4 -8 -10 -11 -5 -3 -10 -1 -10
4 0 6 5 11 10 11 6 0 10 -2 10 -4z m37 -2 c-3 -3 -12 -4 -19 -1 -8 3 -5 6 6 6
11 1 17 -2 13 -5z m0 -20 c-3 -4 1 -13 9 -21 8 -9 12 -18 8 -22 -4 -3 -9 0
-11 7 -3 6 -17 13 -31 13 -17 1 -21 3 -9 6 9 2 15 9 12 14 -4 5 2 9 11 9 10 0
15 -3 11 -6z m48 -3 c3 -5 1 -12 -4 -15 -5 -3 -11 1 -15 9 -6 16 9 21 19 6z
m-120 -69 c-8 -9 -25 20 -18 31 3 5 10 2 15 -7 6 -10 7 -20 3 -24z m135 23 c0
-8 -4 -15 -9 -15 -5 0 -11 7 -15 15 -3 9 0 15 9 15 8 0 15 -7 15 -15z m26 -50
c13 -13 13 -15 1 -15 -8 0 -17 7 -21 15 -3 8 -3 15 0 15 3 0 12 -7 20 -15z
m163 -1 c2 -2 -3 -4 -12 -4 -23 0 -22 -20 1 -21 15 -1 15 -2 -1 -6 -11 -3 -16
-11 -13 -18 3 -9 0 -12 -8 -9 -7 3 -12 15 -12 27 1 12 -2 28 -8 35 -7 11 -3
12 20 6 16 -4 31 -8 33 -10z m-399 -30 c0 -8 5 -14 10 -14 12 0 13 -37 1 -44
-5 -3 -15 1 -22 10 -9 11 -10 17 -1 23 7 4 8 12 2 21 -13 20 -12 33 0 25 6 -3
10 -13 10 -21z m54 7 c3 -5 0 -11 -7 -14 -8 -3 -14 1 -14 9 0 16 13 19 21 5z
m225 2 c-6 -35 2 -45 29 -39 26 5 26 5 4 -6 -19 -9 -26 -8 -43 10 -11 12 -17
27 -14 32 7 12 26 13 24 3z m-183 -20 c-7 -23 8 -50 19 -34 4 7 4 19 1 27 -4
11 -1 11 19 -2 14 -9 31 -14 39 -11 9 4 17 -2 21 -14 4 -10 13 -19 21 -19 8 0
13 -4 9 -9 -3 -6 3 -14 12 -20 14 -8 15 -10 3 -11 -13 0 -13 -1 0 -11 12 -8
11 -9 -5 -6 -11 2 -19 9 -17 15 1 7 -3 12 -8 12 -6 0 -16 11 -22 25 -11 24
-38 35 -38 15 0 -5 -8 -6 -17 -3 -15 6 -16 4 -6 -8 7 -9 14 -24 16 -35 1 -10
6 -24 10 -31 5 -7 0 -9 -13 -6 -22 6 -38 23 -21 23 6 0 11 8 10 18 0 10 -3 12
-6 5 -8 -20 -44 4 -36 24 4 10 2 14 -5 9 -11 -7 -25 9 -28 32 -2 8 3 11 12 8
8 -3 17 1 20 9 8 21 17 19 10 -2z m259 -32 c3 -5 2 -12 -3 -15 -5 -3 -9 1 -9
9 0 17 3 19 12 6z m-310 -21 c-3 -5 0 -10 7 -10 8 0 5 -5 -5 -11 -13 -8 -22
-8 -29 -1 -13 13 -2 32 18 32 8 0 12 -4 9 -10z m124 -21 c-6 -3 -1 -9 11 -12
24 -6 19 -27 -6 -27 -8 0 -13 4 -9 9 3 5 1 12 -4 15 -5 3 -7 15 -4 27 4 15 8
17 14 8 4 -8 3 -16 -2 -20z m111 -6 c16 -9 31 -25 34 -35 4 -16 2 -17 -12 -7
-26 20 -64 59 -56 59 3 0 19 -8 34 -17z m-273 -12 c5 -18 34 -39 32 -23 -5 33
23 46 35 16 3 -8 2 -12 -3 -9 -5 3 -16 -3 -23 -14 -16 -22 -26 -18 -51 22 -10
16 -13 27 -6 27 6 0 13 -9 16 -19z m276 -35 c5 -13 -12 -26 -34 -26 -11 0 -7
23 6 32 15 11 22 10 28 -6z m59 -18 c-9 -9 -12 -7 -12 12 0 19 3 21 12 12 9
-9 9 -15 0 -24z m-226 9 c4 -3 1 -13 -6 -22 -10 -13 -9 -15 9 -15 11 0 21 -6
21 -14 0 -8 6 -17 13 -19 8 -4 9 -6 0 -6 -6 -1 -19 6 -28 15 -15 15 -17 15
-22 -5 -4 -17 -10 -20 -27 -15 -44 13 -59 39 -31 51 9 3 22 -2 30 -13 7 -11
17 -16 21 -12 4 5 -1 17 -10 27 -10 11 -15 24 -12 29 7 11 31 10 42 -1z m99
-7 c0 -4 11 -17 25 -29 20 -16 21 -20 8 -21 -20 0 -60 48 -52 62 6 10 19 2 19
-12z m-354 -143 c-1 -12 -15 -9 -19 4 -3 6 1 10 8 8 6 -3 11 -8 11 -12z m-27
-108 c-11 -19 -31 -8 -31 16 0 25 0 25 18 9 10 -9 16 -21 13 -25z"/>
<path d="M2440 3511 c0 -10 19 -25 25 -20 1 2 -3 10 -11 17 -8 7 -14 8 -14 3z"/>
<path d="M222 3730 c0 -14 2 -19 5 -12 2 6 2 18 0 25 -3 6 -5 1 -5 -13z"/>
<path d="M4547 3553 c-4 -3 -7 -18 -6 -32 0 -16 3 -20 6 -11 3 8 12 19 19 23
8 4 14 12 14 17 0 11 -23 13 -33 3z"/>
<path d="M2306 3401 c-6 -10 31 -51 46 -51 11 0 10 18 -2 25 -6 4 -7 12 -4 18
4 7 4 9 -1 5 -4 -4 -14 -3 -21 3 -8 6 -14 7 -18 0z"/>
<path d="M2906 3335 c-3 -9 -11 -13 -17 -9 -8 4 -9 3 -5 -4 4 -7 13 -12 21
-12 22 0 26 -29 5 -40 -26 -14 -43 -13 -66 5 -18 14 -17 15 11 9 30 -7 30 -7
12 14 -11 11 -16 26 -12 31 8 13 12 13 -61 1 -80 -14 -204 -62 -204 -79 0 -9
-7 -11 -22 -8 -11 3 -33 0 -48 -8 -15 -8 -31 -11 -35 -7 -5 4 -5 -1 -1 -12 6
-16 3 -18 -24 -12 -17 3 -39 2 -48 -3 -9 -5 -38 -15 -64 -22 -42 -10 -52 -18
-50 -40 1 -3 -9 -5 -20 -5 -28 1 -34 -18 -10 -30 15 -7 18 -14 11 -29 -7 -19
-8 -19 -8 3 -1 19 -5 22 -22 17 -15 -5 -19 -4 -15 4 13 21 -15 11 -72 -27 -31
-20 -66 -42 -77 -49 -11 -6 -19 -16 -18 -21 1 -6 -5 -9 -15 -8 -32 5 -123 -54
-222 -144 -19 -17 -75 -62 -125 -99 -49 -38 -106 -83 -125 -100 -19 -18 -45
-39 -58 -48 -17 -12 -20 -19 -11 -29 6 -8 16 -11 21 -8 6 4 7 -2 3 -15 -5 -16
-2 -26 10 -35 12 -9 15 -24 13 -66 -3 -40 -6 -50 -12 -35 -21 51 -31 66 -35
53 -2 -7 -10 -16 -17 -21 -18 -10 -15 -107 3 -107 19 0 16 -20 -4 -36 -17 -13
-17 -15 0 -25 9 -5 17 -14 17 -19 0 -5 -8 -10 -17 -12 -17 -3 -17 -4 -1 -10
25 -10 40 23 42 90 1 37 6 57 15 60 8 3 11 1 8 -4 -3 -5 -8 -56 -12 -114 -3
-58 -10 -152 -15 -209 -5 -57 -6 -110 -3 -118 3 -8 -2 -16 -13 -19 -17 -5 -19
-17 -21 -104 -1 -68 -7 -106 -17 -122 -12 -19 -13 -34 -4 -78 6 -37 6 -91 -1
-170 -19 -208 -23 -328 -12 -335 6 -3 11 0 11 7 0 10 2 10 9 0 4 -8 11 -13 15
-13 3 1 10 1 14 1 10 0 35 -90 27 -98 -3 -3 -5 0 -5 6 0 7 -4 12 -10 12 -18 0
-3 -45 16 -49 25 -4 55 -32 51 -45 -2 -6 3 -16 12 -23 14 -10 13 -11 -5 -7
-17 4 -22 0 -26 -18 -4 -21 -1 -24 22 -20 21 3 28 -2 40 -30 12 -26 20 -32 40
-30 14 2 50 -2 82 -9 46 -9 57 -15 61 -34 5 -27 -6 -30 -138 -40 -82 -7 -135
-21 -135 -36 0 -13 18 -11 22 2 3 9 10 9 26 0 13 -7 46 -10 84 -6 35 2 95 7
133 10 39 2 106 11 149 19 89 15 316 22 316 9 0 -20 -23 -31 -45 -23 -15 6
-29 4 -42 -5 -10 -7 -37 -17 -59 -21 -21 -4 -33 -9 -26 -12 20 -6 -16 -42 -42
-42 -12 0 -34 -7 -50 -15 -34 -18 -36 -18 -36 -4 0 5 6 7 13 4 6 -3 2 2 -10
11 -13 9 -23 23 -23 30 0 8 -7 14 -15 14 -8 0 -15 5 -15 10 0 7 -6 7 -18 1 -9
-6 -29 -12 -43 -15 -21 -5 -25 -10 -22 -29 3 -15 0 -24 -9 -24 -24 0 -142 -13
-173 -19 -16 -3 -55 -7 -85 -9 -30 -2 -99 -7 -152 -11 l-98 -7 0 26 c0 14 6
28 13 30 9 4 8 6 -2 6 -29 2 11 31 43 31 17 0 40 7 50 15 11 8 28 15 38 15 10
0 18 4 18 8 0 10 -46 10 -56 -1 -17 -17 -23 -4 -17 41 7 60 16 634 14 907 -1
116 1 220 4 233 3 12 18 28 33 34 l27 12 -27 4 c-14 2 -29 10 -32 18 -3 9 2
115 11 237 23 309 22 335 -11 308 -10 -8 -16 -9 -21 -1 -3 6 -10 8 -15 5 -5
-3 -14 3 -20 12 -11 17 -11 17 -6 -1 6 -16 2 -17 -36 -13 -43 5 -154 29 -193
42 -19 6 -20 6 -1 -9 10 -8 54 -27 96 -41 84 -28 134 -70 128 -107 -2 -12 -19
-34 -39 -50 -34 -28 -36 -28 -72 -13 -20 8 -51 15 -69 15 -36 0 -115 26 -139
47 -19 16 -79 17 -79 2 0 -8 -5 -8 -17 1 -10 7 -5 1 10 -14 17 -16 40 -26 58
-26 36 0 220 -45 257 -62 34 -17 40 -53 13 -82 -18 -19 -30 -22 -98 -20 -77 2
-131 15 -144 36 -4 6 -31 12 -61 13 -29 1 -69 5 -88 10 l-35 8 27 -22 c49 -39
99 -54 203 -58 93 -4 205 -28 205 -44 0 -14 -32 -39 -50 -39 -25 0 -50 -10
-50 -20 0 -5 10 -7 22 -5 43 9 57 -3 63 -53 4 -26 9 -54 13 -62 3 -8 6 -116 7
-240 1 -172 -2 -228 -12 -238 -8 -8 -13 -38 -13 -75 0 -34 -7 -103 -15 -153
-17 -105 -22 -218 -11 -252 4 -13 3 -28 -2 -35 -12 -15 -24 -130 -27 -254 -1
-74 1 -96 14 -107 27 -23 87 -37 154 -35 67 2 91 -5 84 -25 -7 -18 74 -19 97
-1 10 8 16 21 13 29 -6 15 -4 15 176 32 63 6 69 5 74 -14 3 -11 18 -26 35 -33
19 -8 26 -15 19 -22 -12 -12 -3 -37 15 -37 25 0 113 51 119 69 4 13 14 17 38
15 73 -6 95 -15 107 -47 5 -17 7 -34 3 -38 -5 -3 -62 -14 -128 -24 -241 -34
-261 -40 -284 -83 -9 -16 -6 -18 18 -14 17 2 34 -3 44 -13 33 -32 -5 -47 -55
-21 -20 11 -29 11 -36 3 -9 -14 -46 -147 -62 -225 -5 -30 -15 -62 -21 -73 -10
-19 -6 -20 100 -18 63 0 111 5 111 11 0 5 -4 7 -9 3 -5 -3 -12 -1 -16 5 -6 10
42 26 52 17 3 -4 14 -2 24 4 11 5 19 6 18 2 -1 -4 1 -16 5 -25 8 -17 33 -18
330 -17 176 0 316 3 309 5 -23 10 -1 34 30 34 l30 0 -23 -20 -23 -20 119 0
c66 0 133 4 151 9 22 7 33 6 37 -2 3 -8 8 -7 15 3 9 12 14 13 31 2 11 -6 42
-12 70 -12 43 0 50 3 50 20 0 11 5 20 11 20 5 0 7 5 4 10 -3 6 -16 10 -28 10
-16 0 -18 3 -9 12 10 10 19 10 44 0 28 -10 35 -9 48 5 14 16 14 16 -4 2 -17
-12 -19 -12 -14 1 6 17 79 16 115 -2 12 -6 33 -8 48 -4 22 6 25 9 15 21 -10
12 -9 15 6 15 16 1 15 3 -6 15 l-25 14 34 1 c24 0 32 4 28 14 -4 10 5 16 32
21 65 11 121 13 115 4 -3 -5 1 -9 9 -9 26 0 38 -25 27 -55 -8 -20 -15 -26 -30
-22 -11 3 -18 1 -14 -4 3 -5 12 -9 20 -9 8 0 14 -6 13 -12 -1 -7 -1 -25 0 -40
1 -27 3 -28 54 -27 28 0 46 3 40 6 -20 7 4 43 28 43 11 0 30 -11 43 -25 l23
-25 422 0 c258 0 420 4 416 9 -3 5 -1 12 4 15 5 3 11 -1 15 -9 7 -20 79 -20
96 0 16 19 34 19 50 0 10 -13 48 -15 229 -14 119 0 210 3 204 6 -15 6 -17 33
-3 33 6 0 10 70 10 190 0 183 -1 190 -20 190 -26 0 -26 30 0 37 17 5 20 14 20
68 0 66 -15 96 -38 73 -7 -7 -12 -18 -12 -25 0 -7 -11 -13 -25 -13 -14 0 -25
-4 -25 -10 0 -20 -28 -10 -35 12 -4 14 -8 18 -12 11 -2 -7 -11 -13 -19 -13 -9
0 -12 -4 -9 -10 3 -5 15 -10 26 -10 14 0 19 -6 17 -17 -5 -27 -27 -27 -38 1
-5 14 -14 26 -20 26 -6 0 -6 7 2 20 16 25 3 38 -22 22 -16 -10 -20 -10 -20 1
0 7 5 18 10 23 7 7 1 9 -20 6 -26 -4 -31 -9 -30 -31 4 -52 2 -55 -22 -35 -12
10 -18 14 -14 7 9 -17 -30 -37 -40 -21 -4 6 -2 14 4 16 7 2 12 11 12 19 0 9
12 27 27 41 l27 25 -25 -8 c-13 -4 -30 -10 -36 -12 -15 -6 -17 13 -3 22 12 7
4 25 -11 25 -5 0 -9 -6 -9 -14 0 -8 -6 -16 -14 -19 -7 -3 -16 -15 -19 -26 -4
-17 -2 -19 13 -11 26 14 30 13 30 -8 0 -28 -19 -42 -46 -32 -15 6 -24 5 -28
-3 -8 -20 -26 14 -26 51 0 19 -4 31 -10 27 -5 -3 -22 2 -37 12 -15 10 -24 13
-20 7 4 -7 -2 -14 -14 -17 -17 -5 -24 1 -36 33 -9 22 -19 37 -23 35 -4 -3 -13
2 -20 11 -10 11 -15 12 -20 3 -11 -17 -33 0 -27 22 3 12 0 19 -9 19 -8 0 -19
11 -24 25 -11 30 -24 34 -15 5 5 -15 2 -20 -13 -20 -11 0 -22 -6 -25 -12 -3
-9 -10 -6 -22 10 -15 20 -18 21 -37 7 -15 -10 -25 -11 -34 -4 -8 7 -14 7 -19
-1 -10 -16 -28 -12 -21 5 3 9 0 15 -9 15 -8 0 -15 5 -15 10 0 6 11 8 25 4 18
-4 27 -1 31 10 3 9 14 16 23 17 10 0 12 2 3 6 -7 3 -18 0 -25 -5 -7 -6 -43
-13 -82 -17 -64 -7 -91 -11 -105 -15 -3 -1 4 -5 15 -9 11 -5 28 -4 39 1 13 7
23 6 34 -6 15 -15 15 -16 -1 -16 -11 0 -15 -4 -11 -12 5 -8 2 -9 -9 -5 -10 4
-24 10 -32 13 -8 3 -15 1 -15 -6 0 -6 9 -14 19 -17 27 -7 15 -33 -15 -33 -13
0 -24 -5 -24 -11 0 -5 4 -8 9 -4 10 6 41 -21 41 -36 0 -5 -6 -9 -12 -9 -9 0
-8 -4 2 -10 13 -8 12 -10 -2 -10 -10 0 -18 5 -18 10 0 6 -11 10 -24 10 -16 0
-26 7 -30 23 -7 29 3 67 18 67 8 0 11 11 8 30 -4 25 -9 30 -33 30 -17 0 -29 5
-29 13 0 7 -10 21 -21 31 -20 17 -23 17 -31 2 -5 -9 -14 -16 -21 -16 -7 0 -21
-11 -31 -25 -10 -13 -23 -22 -29 -18 -6 3 -7 1 -3 -5 4 -7 20 -12 35 -12 16 0
34 -7 41 -15 9 -10 9 -15 1 -15 -6 0 -11 5 -11 11 0 5 -5 7 -10 4 -6 -4 -7
-11 -4 -17 4 -6 2 -8 -4 -4 -6 3 -15 -1 -20 -10 -8 -14 -12 -10 -28 22 l-19
39 -65 -3 c-36 -2 -83 -7 -105 -12 -22 -5 -60 -10 -85 -10 -90 -1 -116 -9
-134 -46 -19 -42 -36 -43 -65 -4 -16 22 -28 29 -41 25 -11 -3 -27 -2 -35 3
-15 8 -15 10 -1 21 23 19 20 38 -6 46 -22 6 -22 7 6 15 16 5 60 12 98 16 42 4
65 10 57 15 -20 12 15 23 52 15 21 -4 28 -2 23 6 -6 10 -65 8 -229 -7 -48 -4
-144 -12 -280 -21 -95 -7 -99 -6 -82 10 9 10 18 22 18 27 1 5 2 13 3 18 2 15
16 26 16 13 0 -8 13 -11 36 -8 20 3 37 6 38 8 20 30 46 58 46 51 0 -6 -7 -16
-15 -23 -8 -7 -12 -16 -9 -22 8 -12 34 10 34 28 0 8 4 14 9 14 5 0 7 -9 4 -19
-4 -16 -1 -19 16 -14 21 5 30 33 11 33 -5 0 -10 5 -10 11 0 8 5 8 15 -1 8 -7
15 -18 15 -24 0 -8 12 -11 33 -10 17 2 24 1 14 -2 -9 -3 -15 -10 -12 -15 4 -5
15 -5 27 2 23 12 95 19 204 18 55 0 74 4 85 17 11 13 11 18 1 21 -19 7 -4 23
22 23 28 0 49 22 40 43 -4 10 0 15 13 14 12 -1 18 5 18 18 0 34 17 35 46 3 26
-30 27 -30 38 -10 6 11 11 27 11 35 0 7 15 26 34 42 19 16 32 34 29 40 -4 12
30 29 54 26 6 -1 14 6 16 16 4 16 5 16 6 1 1 -11 6 -15 16 -12 23 9 48 -15 34
-32 -13 -15 -4 -48 10 -40 14 9 41 -4 41 -20 0 -10 -6 -11 -25 -4 -23 9 -36 6
-74 -18 -6 -3 31 -31 42 -32 4 0 7 6 7 13 0 9 12 14 31 15 36 1 63 30 47 49
-6 7 -15 13 -20 13 -5 0 -16 7 -24 15 -23 23 3 19 37 -6 27 -19 29 -19 29 -2
0 10 12 32 26 48 20 24 24 26 19 9 -3 -13 1 -26 10 -34 8 -7 15 -21 15 -31 0
-18 -14 -24 -50 -20 -13 2 -13 1 0 -8 8 -5 18 -7 22 -5 4 3 5 -2 2 -10 -3 -9
-2 -16 4 -16 5 0 12 -7 16 -15 5 -13 2 -13 -19 1 -14 9 -25 20 -25 25 0 20
-31 7 -42 -17 -11 -23 -9 -28 18 -49 37 -31 59 -31 70 -2 6 16 9 7 11 -37 4
-62 -6 -80 -39 -72 -10 2 -18 0 -18 -4 0 -5 -25 -12 -55 -15 -30 -4 -52 -11
-49 -16 3 -5 9 -7 14 -4 13 8 290 8 322 0 19 -5 25 -11 21 -23 -4 -10 -2 -13
5 -8 20 12 14 46 -8 46 -18 0 -20 7 -20 70 0 58 -3 68 -15 64 -9 -4 -15 0 -15
10 0 26 -17 18 -24 -10 -4 -15 -9 -25 -11 -23 -7 7 33 457 42 472 2 4 13 3 23
-3 10 -5 27 -7 38 -2 18 6 19 11 8 42 -6 20 -21 39 -34 45 -14 6 -20 15 -16
25 21 53 33 123 24 140 -5 10 -7 27 -4 37 4 14 3 15 -4 4 -20 -28 -19 13 1 52
15 29 17 40 7 52 -16 20 -3 175 16 175 7 0 18 -9 24 -20 16 -31 29 -24 27 15
-2 31 -4 33 -26 28 -23 -6 -24 -5 -17 38 18 101 18 110 1 135 -14 21 -15 33
-6 74 6 27 13 77 16 112 4 35 11 81 16 102 8 30 8 41 -3 47 -10 7 -10 9 0 9 6
0 12 5 12 11 0 8 -27 10 -92 5 -51 -3 -160 -7 -243 -8 -82 -1 -154 -4 -160 -7
-5 -3 -24 -4 -42 -2 -18 1 -37 0 -43 -4 -10 -6 -272 -14 -468 -15 -66 0 -101
-4 -97 -10 7 -11 -8 -14 -19 -3 -6 6 -126 6 -413 0 l-81 -2 -5 28 c-3 21 1 27
14 27 9 0 19 -5 21 -11 5 -16 23 -6 183 100 249 165 355 307 355 475 0 74 -75
157 -117 129 -10 -6 -17 -15 -17 -20 1 -4 5 -23 9 -40 5 -28 4 -33 -12 -33
-15 0 -16 2 -3 10 8 5 10 10 3 10 -6 0 -9 8 -6 19 3 13 -2 20 -19 25 -18 6
-20 9 -8 14 8 4 16 16 18 27 2 19 2 19 -11 3 -15 -19 -43 -25 -32 -7 5 7 -5 8
-30 3 -31 -5 -36 -4 -30 7 7 12 6 12 -9 0 -13 -11 -14 -16 -4 -22 10 -7 9 -9
-4 -9 -11 0 -18 8 -18 20 0 28 -20 25 -21 -2 -1 -13 -1 -26 0 -30 0 -5 -3 -8
-8 -8 -6 0 -11 14 -13 32 -3 35 -22 48 -32 23z m168 -44 c4 -5 -3 -7 -14 -4
-23 6 -26 13 -6 13 8 0 17 -4 20 -9z m94 -46 c0 -16 -2 -15 -8 5 -11 34 -11
60 0 35 5 -11 8 -29 8 -40z m-241 0 c0 -10 -6 -14 -14 -10 -8 3 -18 5 -21 6
-4 0 2 4 13 9 11 5 20 9 21 9 0 1 1 -6 1 -14z m31 -16 c-3 -8 -7 -3 -11 10 -4
17 -3 21 5 13 5 -5 8 -16 6 -23z m-113 11 c-11 -5 -14 -9 -7 -9 7 -1 10 -5 7
-11 -3 -5 -1 -10 6 -10 8 0 8 -4 1 -13 -7 -8 -7 -18 -2 -27 16 -25 11 -40 -12
-40 -21 0 -21 0 -2 -16 10 -8 13 -12 5 -8 -11 6 -10 2 2 -16 12 -18 14 -27 5
-37 -6 -7 -12 -31 -12 -52 -1 -30 2 -38 14 -36 8 1 14 8 13 14 -2 6 2 11 9 11
6 0 3 7 -8 16 -10 8 -13 13 -6 9 6 -3 12 -1 12 4 0 22 18 10 28 -18 9 -25 7
-30 -14 -40 -13 -6 -24 -17 -24 -25 0 -21 -28 -9 -35 15 -8 25 -32 25 -31 -1
1 -10 -3 -18 -9 -17 -5 1 -9 8 -7 15 4 16 -18 15 -42 -3 -13 -10 -17 -21 -12
-39 3 -14 1 -28 -4 -31 -8 -5 -7 -11 1 -22 11 -12 9 -13 -14 -8 -30 8 -36 -5
-12 -25 15 -13 13 -24 -6 -26 -5 -1 -13 -2 -19 -3 -5 0 -11 -9 -11 -18 -1 -17
-2 -17 -6 0 -4 14 -8 16 -19 6 -10 -8 -18 -8 -27 -1 -7 6 -24 8 -37 5 -16 -4
-21 -3 -16 6 4 6 12 8 18 5 7 -5 8 -2 3 7 -5 7 -8 29 -7 49 0 19 -1 30 -4 23
-3 -7 -12 -9 -21 -6 -12 5 -14 1 -9 -14 3 -10 0 -28 -8 -39 -14 -18 -15 -18
-9 6 5 24 5 25 -10 5 -9 -11 -17 -16 -17 -11 0 5 -7 3 -15 -4 -26 -22 -26 -5
1 23 14 15 22 32 18 38 -4 6 0 15 7 20 18 11 32 11 25 1 -3 -5 1 -9 9 -9 8 0
13 3 12 6 -4 18 21 61 57 98 43 44 60 54 50 28 -4 -8 -12 -15 -20 -15 -7 0
-11 -6 -8 -14 3 -9 13 -12 27 -8 20 5 20 4 8 -11 -7 -9 -21 -17 -29 -17 -12 0
-13 -3 -4 -12 9 -9 16 -5 32 15 24 30 25 43 3 39 -11 -3 -12 1 -5 14 5 9 7 24
5 33 -2 9 9 30 25 46 16 17 32 40 36 53 4 12 12 22 17 22 6 0 7 -6 1 -17 -5
-9 -6 -28 -3 -42 4 -14 6 -50 4 -78 -2 -31 1 -53 7 -53 9 0 13 18 13 63 0 11
5 16 13 13 12 -4 11 0 -1 24 -20 38 -19 50 3 50 12 0 14 2 4 9 -13 8 -11 59 3
94 6 15 10 16 16 5 7 -10 9 -9 9 5 0 12 8 17 28 16 24 0 25 -1 7 -9z m-275
-22 c0 -12 -17 -18 -34 -12 -25 10 -19 24 9 22 14 -1 25 -6 25 -10z m-98 -46
c5 -5 -5 -8 -22 -8 -17 0 -30 5 -30 12 0 14 37 11 52 -4z m64 11 c-10 -11 -36
-12 -36 -2 0 5 10 9 22 9 12 0 18 -3 14 -7z m360 -12 c-4 -5 0 -11 6 -14 7 -2
10 -8 6 -12 -8 -9 -38 12 -38 26 0 5 7 9 16 9 8 0 13 -4 10 -9z m-519 -14 c-1
-5 4 -12 11 -14 6 -3 12 0 12 6 0 21 28 -1 35 -27 5 -20 8 -23 16 -11 7 12 9
11 9 -3 0 -10 -7 -18 -15 -18 -8 0 -15 7 -15 16 0 10 -6 14 -15 10 -8 -3 -15
-1 -15 5 0 6 -4 8 -9 5 -5 -3 -11 1 -15 9 -3 8 -15 15 -26 15 -12 0 -19 4 -15
9 7 12 44 10 42 -2z m563 3 c0 -5 -5 -10 -11 -10 -5 0 -7 5 -4 10 3 6 8 10 11
10 2 0 4 -4 4 -10z m-440 -20 c0 -5 -7 -10 -15 -10 -8 0 -15 5 -15 10 0 6 7
10 15 10 8 0 15 -4 15 -10z m-157 -15 c1 -5 -6 -11 -15 -13 -11 -2 -18 3 -18
13 0 17 30 18 33 0z m554 -13 c6 -4 14 -29 17 -55 5 -40 3 -45 -8 -35 -8 7
-11 17 -8 22 3 5 -1 7 -10 4 -8 -4 -15 -1 -16 5 -1 7 -4 24 -8 40 -6 28 7 36
33 19z m103 -35 c-10 -9 -12 -8 -7 6 5 12 1 17 -11 17 -14 0 -15 2 -2 10 20
12 37 -17 20 -33z m-613 1 c-3 -7 -5 -2 -5 12 0 14 2 19 5 13 2 -7 2 -19 0
-25z m-157 -7 c0 -4 -11 -8 -25 -9 -26 -2 -35 13 -12 21 14 5 37 -2 37 -12z
m105 -3 c18 -8 22 -14 13 -20 -19 -12 -28 -10 -28 6 0 8 -8 17 -17 19 -10 3
-13 5 -6 6 7 0 24 -4 38 -11z m96 -11 c-7 -7 -14 -8 -21 -1 -6 6 -2 10 12 11
16 2 18 -1 9 -10z m-157 -15 c6 -10 -30 -9 -40 1 -4 4 2 7 14 7 11 0 23 -4 26
-8z m50 -20 c2 -4 -4 -8 -15 -8 -10 0 -19 4 -19 8 0 4 6 8 14 8 8 0 17 -4 20
-8z m23 -34 c-3 -8 -6 -5 -6 6 -1 11 2 17 5 13 3 -3 4 -12 1 -19z m-127 8 c0
-11 -19 -15 -25 -6 -3 5 1 10 9 10 9 0 16 -2 16 -4z m-70 -62 c0 -2 -4 -4 -10
-4 -5 0 -10 6 -10 14 0 8 -12 17 -27 21 -20 5 -24 8 -13 15 10 6 21 1 37 -16
13 -14 23 -27 23 -30z m40 36 c14 -26 26 -25 33 1 5 18 8 19 26 7 19 -12 19
-22 0 -24 -5 -1 -13 -2 -19 -3 -5 0 -10 -7 -10 -15 0 -8 -7 -17 -16 -20 -8 -3
-12 -2 -9 4 3 6 2 10 -4 10 -6 0 -8 7 -4 16 4 11 1 15 -13 12 -11 -2 -20 4
-22 15 -5 24 25 22 38 -3z m140 -5 c0 -2 -7 -5 -15 -9 -9 -3 -15 0 -15 9 0 9
6 12 15 9 8 -4 15 -7 15 -9z m-274 -12 c8 -11 13 -13 14 -5 0 20 17 14 23 -8
4 -17 2 -20 -14 -15 -11 4 -19 2 -19 -4 0 -6 4 -11 10 -11 5 0 7 -7 4 -15 -4
-8 -10 -15 -14 -15 -13 0 -18 38 -7 49 7 7 5 12 -6 17 -9 3 -17 10 -17 15 0
14 12 10 26 -8z m864 -20 c0 -22 -2 -25 -10 -13 -13 20 -13 40 0 40 6 0 10
-12 10 -27z m-896 -1 c3 -5 -1 -9 -9 -9 -8 0 -12 4 -9 9 3 4 7 8 9 8 2 0 6 -4
9 -8z m96 -22 c0 -5 -5 -10 -11 -10 -5 0 -7 5 -4 10 3 6 8 10 11 10 2 0 4 -4
4 -10z m54 -21 c-3 -5 -10 -7 -15 -3 -5 3 -7 10 -3 15 3 5 10 7 15 3 5 -3 7
-10 3 -15z m70 14 c-5 -5 -12 -12 -16 -18 -4 -6 -8 -2 -8 8 0 9 7 17 17 17 9
0 12 -3 7 -7z m532 -12 c-4 -5 -1 -11 5 -13 7 -2 6 -8 -4 -16 -12 -10 -14 -8
-12 10 3 27 3 28 11 28 3 0 3 -4 0 -9z m-742 -33 c-6 -9 -34 1 -34 14 0 5 5 6
10 3 6 -3 10 0 10 7 0 10 3 9 9 -2 6 -8 8 -17 5 -22z m26 -8 c0 -5 -5 -10 -11
-10 -5 0 -7 5 -4 10 3 6 8 10 11 10 2 0 4 -4 4 -10z m391 -33 c-18 -18 -21
-19 -21 -5 0 22 33 55 38 38 3 -7 -5 -22 -17 -33z m-444 27 c-3 -3 -12 -4 -19
-1 -8 3 -5 6 6 6 11 1 17 -2 13 -5z m507 -76 c19 -38 19 -38 3 -38 -17 0 -38
36 -31 55 8 21 10 20 28 -17z m-83 13 c-8 -5 -11 -16 -6 -30 8 -25 2 -26 -36
-4 -35 21 -37 30 -6 36 42 8 63 7 48 -2z m26 -63 c0 -9 -5 -19 -12 -21 -7 -3
-11 10 -11 34 -1 33 1 36 11 21 7 -9 12 -25 12 -34z m-77 11 c0 -6 -4 -7 -10
-4 -5 3 -10 11 -10 16 0 6 5 7 10 4 6 -3 10 -11 10 -16z m105 11 c3 -5 1 -10
-4 -10 -6 0 -11 5 -11 10 0 6 2 10 4 10 3 0 8 -4 11 -10z m-165 -42 c0 -12 -3
-18 -7 -14 -10 10 -11 46 -1 40 4 -3 8 -15 8 -26z m204 -10 c-9 -14 -23 2 -17
18 4 12 8 13 14 3 4 -7 5 -17 3 -21z m-126 2 c4 -12 2 -13 -9 -3 -10 10 -16
10 -28 0 -10 -8 -13 -8 -8 0 4 6 1 13 -5 16 -7 3 0 4 16 3 16 -1 31 -8 34 -16z
m-108 0 c0 -5 -2 -10 -4 -10 -3 0 -8 5 -11 10 -3 6 -1 10 4 10 6 0 11 -4 11
-10z m-15 -71 c-6 -36 -4 -39 17 -35 13 2 29 -1 36 -7 7 -6 12 -6 11 -1 -4 21
2 26 16 14 22 -18 152 -15 174 4 21 19 52 21 48 4 -1 -9 15 -13 55 -13 68 0
64 -10 -8 -19 -41 -5 -53 -3 -57 9 -4 9 -13 12 -22 8 -13 -5 -14 -7 -3 -14 8
-6 -5 -9 -37 -10 -68 -3 -73 -3 -81 -11 -4 -4 -11 -5 -17 -1 -12 8 -407 10
-407 3 0 -3 -37 -5 -83 -5 -60 0 -81 3 -79 13 1 6 -7 12 -18 12 -11 0 -20 -6
-20 -14 0 -29 -223 -29 -234 1 -4 10 1 12 18 7 19 -4 26 -1 31 15 8 28 55 30
55 2 0 -16 6 -17 53 -13 28 2 57 8 63 13 6 5 36 3 68 -3 42 -9 61 -9 75 -1 18
12 70 11 89 -1 7 -4 18 -4 25 1 6 4 52 8 101 8 62 0 90 4 93 13 3 7 -1 10 -11
6 -11 -4 -16 -1 -16 11 0 9 4 13 10 10 5 -3 8 0 5 7 -5 13 33 38 48 30 4 -2 5
-21 2 -43z m125 26 c0 -2 -6 -5 -13 -8 -8 -3 -14 1 -14 8 0 7 6 11 14 8 7 -3
13 -6 13 -8z m-215 -44 c-3 -6 -11 -11 -17 -11 -6 0 -6 6 2 15 14 17 26 13 15
-4z m260 -1 c3 -5 1 -10 -4 -10 -6 0 -11 5 -11 10 0 6 2 10 4 10 3 0 8 -4 11
-10z m1565 -36 c0 -7 4 -14 9 -16 5 -1 10 -16 12 -33 2 -16 7 -36 12 -43 8 -9
0 -11 -34 -8 -24 3 -50 5 -56 5 -7 1 -13 7 -13 15 0 19 -47 27 -54 10 -3 -8 0
-14 6 -14 7 0 4 -6 -6 -13 -10 -7 -30 -13 -44 -12 -23 0 -27 4 -28 33 l-1 33
20 -21 c10 -12 22 -18 26 -14 3 4 0 9 -6 11 -7 3 -13 8 -13 13 0 4 6 8 13 7 6
0 29 1 51 1 31 2 36 5 27 15 -17 21 0 29 21 10 10 -9 21 -13 26 -9 4 4 -1 13
-11 20 -25 19 -21 25 13 24 17 -1 30 -6 30 -14z m-882 -39 c9 -18 7 -21 -15
-20 -14 0 -28 -5 -30 -11 -2 -6 10 -9 29 -8 18 2 106 6 194 9 l162 7 -4 -49
c-2 -30 3 -56 12 -70 17 -27 7 -31 -12 -5 -12 16 -13 16 -14 -4 0 -25 -25 -50
-34 -36 -3 6 1 13 10 16 13 5 14 9 4 21 -9 10 -9 15 -1 15 6 0 11 5 11 10 0
12 -40 -6 -53 -24 -5 -6 -6 -1 -2 11 3 13 2 31 -4 40 -9 16 -10 16 -11 -3 0
-15 -8 -23 -25 -26 -13 -3 -22 -2 -19 3 2 4 -5 7 -15 6 -16 -1 -19 -6 -15 -27
5 -25 5 -25 -13 -5 -19 22 -63 28 -63 10 -1 -23 -29 -47 -47 -40 -10 4 -31 7
-48 5 -24 -2 -27 0 -17 12 10 12 7 17 -15 27 -22 10 -24 14 -12 22 10 6 7 9
-13 9 -16 0 -28 -5 -28 -11 0 -6 -7 -17 -15 -26 -19 -18 -11 -34 13 -26 10 4
14 2 9 -3 -5 -5 -19 -9 -30 -9 -13 0 -22 -6 -22 -15 0 -8 6 -14 13 -13 6 2 12
-2 12 -7 0 -5 -10 -11 -22 -12 -37 -2 -42 -3 -55 -11 -6 -4 -18 -4 -27 -1 -10
4 -16 1 -16 -9 0 -8 6 -18 13 -20 6 -3 2 -6 -10 -6 -15 -1 -21 3 -17 13 7 18
-16 32 -26 16 -6 -9 -9 -10 -15 0 -4 7 -2 16 5 20 9 6 8 14 -4 38 -9 17 -13
38 -10 46 4 11 0 16 -14 16 -18 0 -20 5 -17 31 5 40 14 49 22 21 7 -27 23 -29
23 -2 0 15 7 20 24 20 14 0 28 5 31 11 4 6 30 9 62 7 30 -2 57 0 60 4 2 5 12
3 21 -4 13 -11 15 -10 9 5 -4 12 -1 17 11 17 15 0 15 2 2 10 -12 8 -9 10 13
10 15 0 27 5 27 12 0 13 4 10 18 -17z m1072 15 c-8 -5 -19 -10 -25 -10 -5 0
-3 5 5 10 8 5 20 10 25 10 6 0 3 -5 -5 -10z m-495 -10 c-3 -5 -13 -10 -21 -10
-8 0 -12 5 -9 10 3 6 13 10 21 10 8 0 12 -4 9 -10z m-75 -15 c17 -9 30 -18 30
-20 0 -11 -38 2 -54 18 -21 21 -14 22 24 2z m-420 -5 c0 -5 -2 -10 -4 -10 -3
0 -8 5 -11 10 -3 6 -1 10 4 10 6 0 11 -4 11 -10z m535 -20 c7 -31 1 -50 -16
-50 -7 0 -8 12 -4 30 4 19 3 30 -4 30 -6 0 -11 5 -11 10 0 24 29 7 35 -20z
m50 19 c11 -17 0 -20 -21 -4 -17 13 -17 14 -2 15 9 0 20 -5 23 -11z m350 1
c-3 -5 -10 -10 -16 -10 -5 0 -9 5 -9 10 0 6 7 10 16 10 8 0 12 -4 9 -10z
m-1589 -33 c13 17 13 17 14 0 0 -15 3 -16 20 -7 13 7 20 7 20 1 0 -6 14 -8 30
-6 27 3 30 0 31 -23 1 -23 2 -23 6 -5 4 22 33 41 33 22 0 -6 4 -8 9 -4 5 3 8
-7 7 -22 -2 -20 -10 -29 -27 -34 -30 -7 -59 9 -52 30 4 13 3 13 -5 2 -6 -9
-15 -10 -23 -5 -16 10 -27 12 -129 17 -43 3 -76 9 -78 16 -2 7 12 11 40 10 64
-2 68 -1 62 19 -4 12 0 10 12 -6 16 -21 17 -21 30 -5z m1222 -12 c-3 -3 -9 2
-12 12 -6 14 -5 15 5 6 7 -7 10 -15 7 -18z m-93 -10 c18 -7 19 -8 2 -12 -28
-7 -47 4 -40 22 3 9 9 13 12 8 3 -5 15 -13 26 -18z m400 16 c3 -5 1 -12 -5
-16 -5 -3 -10 1 -10 9 0 18 6 21 15 7z m113 -20 c3 -8 -1 -12 -9 -9 -7 2 -15
10 -17 17 -3 8 1 12 9 9 7 -2 15 -10 17 -17z m-1925 -6 c-2 -7 0 -16 6 -20 14
-8 14 -25 0 -25 -5 0 -7 5 -4 10 3 6 1 10 -6 10 -7 0 -9 -8 -6 -21 5 -20 5
-20 -20 -3 -24 15 -28 15 -54 0 -18 -10 -30 -13 -34 -6 -3 5 -1 10 4 10 6 0
11 7 11 15 0 9 -9 15 -25 15 -35 0 -31 15 4 18 18 1 31 -3 35 -13 3 -8 10 -15
16 -15 6 0 8 5 4 11 -9 15 14 28 47 27 17 -1 26 -5 22 -13z m24 -7 c-3 -8 -6
-5 -6 6 -1 11 2 17 5 13 3 -3 4 -12 1 -19z m143 -18 c0 -5 -2 -10 -4 -10 -3 0
-8 5 -11 10 -3 6 -1 10 4 10 6 0 11 -4 11 -10z m1342 -22 c-9 -9 -12 -7 -12
12 0 19 3 21 12 12 9 -9 9 -15 0 -24z m-512 -28 c0 -5 -4 -10 -9 -10 -6 0 -13
5 -16 10 -3 6 1 10 9 10 9 0 16 -4 16 -10z m587 -12 c-3 -8 -6 -5 -6 6 -1 11
2 17 5 13 3 -3 4 -12 1 -19z m273 -9 c0 -6 -7 -6 -20 1 -11 6 -20 15 -20 21 0
6 7 6 20 -1 11 -6 20 -15 20 -21z m-740 7 c0 -11 -19 -15 -25 -6 -3 5 1 10 9
10 9 0 16 -2 16 -4z m-145 -38 c8 -7 -1 -6 -45 1 -3 1 2 5 10 11 8 5 17 6 20
2 3 -4 10 -10 15 -14z m310 1 c4 -6 5 -12 2 -15 -7 -7 -37 7 -37 17 0 13 27
11 35 -2z m209 -25 c3 -8 2 -14 -2 -14 -10 0 -32 22 -32 32 0 12 28 -2 34 -18z
m-224 -24 c0 -5 -7 -7 -15 -4 -8 4 -12 10 -9 15 6 11 24 2 24 -11z m-270 -22
c0 -11 -12 -10 -30 2 -12 7 -10 9 8 7 12 0 22 -5 22 -9z m-1550 -18 c0 -5 -4
-10 -10 -10 -5 0 -10 5 -10 10 0 6 5 10 10 10 6 0 10 -4 10 -10z m2540 -276
c0 -2 -9 -4 -20 -4 -11 0 -20 4 -20 9 0 5 9 7 20 4 11 -3 20 -7 20 -9z m-93
-428 c-3 -22 -10 -42 -16 -44 -6 -2 -13 -19 -17 -37 -3 -19 -12 -39 -20 -46
-8 -6 -11 -15 -8 -20 3 -5 0 -9 -5 -9 -6 0 -11 -6 -11 -13 0 -7 -9 -13 -20
-13 -15 0 -19 5 -14 16 12 25 7 58 -10 75 -27 28 -18 45 13 26 10 -7 23 -4 40
9 29 20 55 76 40 86 -17 10 -9 22 12 17 19 -5 21 -11 16 -47z m-157 -231 c-24
-25 -36 -31 -42 -22 -4 7 -2 14 5 16 7 2 14 7 17 11 5 7 42 29 49 30 3 0 -10
-16 -29 -35z m102 16 c7 10 8 7 4 -11 -3 -14 -6 -40 -6 -59 0 -52 -12 -29 -15
31 -2 29 -1 47 2 39 5 -11 7 -11 15 0z m-42 -32 c0 -17 -4 -28 -10 -24 -5 3
-10 17 -10 31 0 13 5 24 10 24 6 0 10 -14 10 -31z m-30 11 c0 -5 -5 -10 -11
-10 -5 0 -7 5 -4 10 3 6 8 10 11 10 2 0 4 -4 4 -10z m0 -40 c0 -11 -4 -20 -10
-20 -5 0 -10 9 -10 20 0 11 5 20 10 20 6 0 10 -9 10 -20z m-2652 -78 c-5 -41
-29 -40 -26 1 2 23 7 33 16 29 7 -2 12 -16 10 -30z m-2 -86 c-3 -23 -9 -68
-13 -101 -4 -33 -7 -115 -5 -182 3 -102 1 -123 -11 -123 -32 0 -35 76 -12 295
8 77 15 143 15 146 0 3 7 6 15 6 12 0 14 -9 11 -41z m2005 -79 c-10 -9 -11 -8
-5 6 3 10 9 15 12 12 3 -3 0 -11 -7 -18z m-232 0 c-2 -1 -13 -9 -24 -17 -19
-14 -19 -14 -6 3 7 9 18 17 24 17 6 0 8 -1 6 -3z m-555 -29 c-4 -6 1 -17 11
-24 16 -12 16 -13 -4 -11 -15 1 -21 8 -21 24 0 13 5 23 11 23 5 0 7 -5 3 -12z
m-32 -20 c-5 -5 -17 -6 -26 -2 -13 5 -14 9 -5 14 16 11 43 0 31 -12z m391 0
c-2 -5 -15 -8 -28 -8 -15 0 -26 -7 -30 -19 -9 -29 -45 -38 -62 -15 -8 11 -22
18 -31 16 -16 -2 -16 -2 0 8 21 13 48 3 41 -16 -3 -9 1 -14 11 -14 9 0 20 8
23 18 4 9 13 22 20 27 15 12 63 14 56 3z m-950 -55 c8 3 20 0 27 -6 10 -9 11
-9 5 2 -6 11 -4 13 8 8 10 -4 21 1 27 11 8 13 13 14 17 4 4 -10 8 -10 19 -1
10 8 14 8 14 0 0 -6 11 -11 25 -11 16 0 25 -6 25 -16 0 -8 5 -12 11 -8 8 4 9
-1 4 -17 -7 -21 -6 -22 9 -10 9 8 16 9 16 3 0 -6 10 -14 23 -18 12 -4 25 -11
28 -16 11 -16 49 2 49 23 0 10 5 19 11 19 5 0 8 -4 5 -9 -8 -13 14 -18 49 -12
24 5 31 12 33 34 4 35 26 30 30 -6 2 -15 8 -27 13 -27 5 0 9 -9 9 -20 0 -26
38 -27 81 -1 29 18 35 18 61 5 27 -14 29 -13 40 11 6 14 15 25 20 25 5 0 6 -4
3 -10 -9 -14 41 -12 66 3 17 9 23 9 26 0 3 -9 12 -9 30 -2 31 12 53 5 53 -15
0 -15 -76 -33 -102 -23 -7 2 -20 1 -29 -4 -8 -4 -47 -9 -85 -9 -38 -1 -97 -6
-132 -10 -35 -5 -76 -5 -94 1 -23 6 -38 5 -52 -4 -12 -8 -85 -19 -171 -26 -82
-7 -158 -14 -169 -16 -15 -3 -17 1 -13 28 l6 32 -15 -32 c-12 -29 -19 -33 -52
-33 -20 0 -47 -3 -59 -6 -17 -5 -23 -2 -23 9 0 8 6 17 13 20 9 3 9 11 1 34
-13 36 0 71 20 54 10 -8 12 -4 11 19 -1 24 1 28 12 19 7 -6 11 -15 8 -19 -3
-5 9 -3 25 3 24 9 30 16 26 32 -5 19 -5 19 9 1 8 -10 20 -16 28 -13z m946 18
c8 -5 9 -11 3 -15 -5 -3 -15 1 -22 9 -14 16 -3 20 19 6z m-1005 -16 c-4 -8
-11 -15 -16 -15 -6 0 -5 6 2 15 7 8 14 15 16 15 2 0 1 -7 -2 -15z m1331 -95
c-4 -6 -21 -17 -38 -24 -18 -8 -26 -15 -19 -15 8 -1 0 -12 -16 -26 -28 -23
-43 -26 -169 -35 -181 -13 -254 -19 -333 -29 -35 -4 -74 -7 -87 -5 -13 1 -25
-2 -29 -7 -8 -13 88 -11 260 6 83 8 151 13 153 11 4 -3 -272 -81 -325 -92 -29
-6 -46 -24 -22 -24 6 0 10 -7 10 -14 0 -11 -11 -14 -41 -13 -35 1 -38 3 -23
14 17 12 17 13 -2 13 -11 0 -44 -7 -72 -15 -40 -12 -52 -20 -52 -35 0 -23 -38
-28 -69 -9 -27 17 -70 4 -64 -20 5 -20 -18 -34 -42 -25 -26 10 -19 24 33 67
19 15 28 27 21 27 -8 0 -7 6 4 18 10 10 17 26 17 35 0 16 15 21 109 31 24 2
48 9 53 14 8 8 -34 8 -120 -2 -18 -2 -35 0 -38 5 -3 5 0 9 6 9 18 0 59 51 53
66 -3 9 2 14 13 14 38 0 409 31 424 35 8 2 62 7 120 10 58 4 134 10 170 15 98
11 122 11 115 0z m764 -58 c-11 -31 -19 -37 -49 -32 -22 3 -22 5 -9 34 15 32
25 33 35 4 7 -22 7 -22 17 5 5 16 11 26 13 24 2 -2 -1 -18 -7 -35z m157 -10
c-12 -11 -18 7 -10 30 l8 23 4 -23 c2 -13 1 -26 -2 -30z m235 -17 c5 4 9 -3 9
-14 0 -17 -3 -18 -30 -8 -16 6 -26 14 -21 17 4 3 11 14 16 25 8 19 9 19 12 -3
3 -12 9 -20 14 -17z m-821 5 c0 -5 -4 -10 -10 -10 -5 0 -10 5 -10 10 0 6 5 10
10 10 6 0 10 -4 10 -10z m690 1 c0 -5 8 -7 19 -4 25 6 38 -27 17 -43 -9 -6
-16 -17 -16 -25 -1 -8 -7 -3 -15 11 -8 14 -14 19 -15 12 0 -10 -3 -10 -14 0
-10 10 -11 19 -3 35 10 23 27 31 27 14z m-1977 -8 c-7 -2 -19 -2 -25 0 -7 3
-2 5 12 5 14 0 19 -2 13 -5z m1847 -28 c11 -14 14 -13 25 2 8 10 19 14 30 9
17 -6 17 -7 1 -25 -10 -11 -16 -25 -15 -33 4 -29 -2 -38 -26 -38 -29 0 -43 24
-26 44 9 10 8 15 -4 20 -16 6 -21 36 -6 36 5 0 14 -7 21 -15z m348 -22 c16
-16 16 -16 -1 -10 -10 4 -23 7 -28 7 -6 0 -7 5 -4 10 9 14 14 13 33 -7z m-48
-25 c0 -15 -3 -28 -6 -28 -13 0 -44 22 -44 31 0 6 5 7 10 4 6 -3 10 0 10 8 0
7 7 14 15 14 10 0 15 -10 15 -29z m-1030 2 c13 -9 13 -11 0 -20 -8 -5 -27 -10
-42 -10 -21 0 -25 4 -21 20 6 22 38 27 63 10z m948 -30 c6 0 9 7 6 15 -9 22 3
19 42 -11 19 -15 34 -23 34 -20 0 4 9 2 20 -4 11 -6 20 -15 20 -20 0 -15 -47
-12 -53 3 -3 6 -6 1 -7 -13 -1 -23 -2 -24 -14 -7 -8 11 -20 15 -32 11 -14 -4
-16 -4 -5 4 11 8 10 12 -6 21 -11 5 -23 7 -27 4 -3 -3 -6 1 -6 10 0 10 -4 17
-10 17 -5 0 -10 5 -10 12 0 6 7 4 18 -5 10 -10 24 -17 30 -17z m-333 10 c-3
-5 -12 -10 -18 -10 -7 0 -6 4 3 10 19 12 23 12 15 0z m450 -10 c3 -5 -1 -10
-9 -10 -9 0 -16 5 -16 10 0 6 4 10 9 10 6 0 13 -4 16 -10z m99 4 c16 -6 21
-30 10 -58 -11 -28 -26 -17 -22 14 3 17 1 30 -4 30 -4 0 -8 -11 -8 -25 0 -14
-4 -25 -10 -25 -11 0 -14 53 -3 63 8 9 17 9 37 1z m-436 -41 c2 -13 -3 -22
-15 -25 -29 -8 -48 5 -51 33 -2 25 0 26 30 20 23 -5 34 -13 36 -28z m-318 23
c0 -3 -4 -8 -10 -11 -5 -3 -10 -1 -10 4 0 6 5 11 10 11 6 0 10 -2 10 -4z m498
-13 c4 -46 2 -147 -3 -151 -3 -3 -5 11 -5 31 0 19 -7 43 -16 51 -13 14 -14 16
0 16 8 0 14 8 13 19 0 11 -6 17 -14 14 -19 -8 -16 14 5 26 9 6 17 11 18 11 0
0 1 -8 2 -17z m-978 -17 c0 -10 -34 2 -38 13 -3 10 0 10 17 2 11 -7 21 -13 21
-15z m854 8 c5 -14 4 -15 -9 -4 -17 14 -19 20 -6 20 5 0 12 -7 15 -16z m417
-41 c-9 -17 -10 -17 -17 1 -5 12 -3 21 4 24 7 2 13 11 13 20 1 10 3 8 6 -5 2
-12 0 -30 -6 -40z m-1207 31 c4 -10 1 -14 -6 -12 -15 5 -23 28 -10 28 5 0 13
-7 16 -16z m-1481 -9 c-3 -9 -8 -14 -10 -11 -3 3 -2 9 2 15 9 16 15 13 8 -4z
m2160 -121 c18 1 32 -5 38 -16 12 -23 -2 -29 -39 -19 l-31 9 -4 -66 c-2 -37
-3 1 -3 83 0 100 2 126 5 79 6 -70 6 -71 34 -70z m947 84 c0 -19 -2 -20 -10
-8 -13 19 -13 30 0 30 6 0 10 -10 10 -22z m-1847 -18 c3 -13 0 -20 -8 -20 -8
0 -13 9 -12 20 1 11 4 20 8 20 4 0 9 -9 12 -20z m95 6 c10 -6 10 -11 1 -22 -8
-10 -15 -11 -24 -4 -17 14 -32 -7 -16 -23 6 -6 11 -18 11 -26 -1 -14 -2 -14
-13 -1 -7 9 -19 15 -27 14 -8 0 -10 1 -2 3 15 6 15 13 -3 37 -8 11 -15 23 -15
27 0 9 72 5 88 -5z m812 4 c0 -5 -5 -10 -11 -10 -5 0 -7 5 -4 10 3 6 8 10 11
10 2 0 4 -4 4 -10z m-673 -16 c5 -16 -23 -25 -52 -18 -36 9 -20 36 18 32 17
-2 32 -8 34 -14z m-1273 -49 c-4 -8 -10 -12 -15 -9 -11 6 -2 24 11 24 5 0 7
-7 4 -15z m1133 -27 c-14 -9 -10 -12 29 -26 26 -8 35 -7 50 6 17 16 17 16 5 0
-11 -15 -11 -19 3 -24 9 -4 16 -14 15 -23 -2 -23 12 -61 22 -61 5 0 9 -10 9
-23 0 -20 4 -23 35 -19 25 3 36 0 41 -12 3 -9 16 -16 28 -16 15 0 17 -3 8 -9
-11 -7 -10 -10 3 -15 9 -3 21 -4 26 0 5 3 9 -2 9 -10 0 -9 9 -16 20 -16 13 0
22 -9 26 -25 8 -30 -1 -44 -18 -27 -7 7 -22 12 -34 12 -13 0 -26 5 -29 10 -9
15 -27 12 -19 -3 4 -6 -3 -3 -15 8 -15 13 -21 27 -18 43 4 22 2 23 -25 20 -26
-4 -32 -1 -40 24 -7 20 -17 28 -33 28 -13 0 -25 6 -28 13 -6 17 3 38 14 31 5
-3 6 2 3 10 -3 9 -14 16 -24 16 -21 0 -44 25 -36 39 3 5 -1 11 -9 15 -18 7
-20 -13 -3 -49 6 -14 17 -24 24 -21 8 3 11 0 7 -10 -3 -7 -6 -14 -8 -14 -3 0
-51 48 -110 110 l-40 43 46 -31 c26 -17 46 -26 46 -19 0 7 1 22 1 35 2 19 4
21 16 10 10 -9 10 -15 3 -20z m-954 15 c-7 -2 -19 -2 -25 0 -7 3 -2 5 12 5 14
0 19 -2 13 -5z m648 -30 c-12 -20 -14 -14 -5 12 4 9 9 14 11 11 3 -2 0 -13 -6
-23z m1009 -12 c15 -30 13 -33 -22 -26 -39 8 -53 19 -44 34 12 18 54 13 66 -8z
m687 -8 c-17 -4 -17 -5 -1 -17 10 -7 19 -24 20 -37 2 -13 0 -18 -2 -11 -3 6
-12 12 -19 12 -16 0 -29 35 -20 50 3 5 14 9 23 9 15 -1 14 -2 -1 -6z m363 -8
c0 -8 -7 -15 -16 -15 -14 0 -14 3 -4 15 7 8 14 15 16 15 2 0 4 -7 4 -15z m30
-10 c0 -8 -4 -15 -10 -15 -5 0 -10 7 -10 15 0 8 5 15 10 15 6 0 10 -7 10 -15z
m-3042 -23 c3 -22 -12 -30 -23 -12 -4 6 -11 8 -16 5 -11 -7 -11 -3 -3 20 9 23
38 14 42 -13z m917 18 c3 -5 2 -10 -4 -10 -5 0 -13 5 -16 10 -3 6 -2 10 4 10
5 0 13 -4 16 -10z m1686 -23 c-8 -8 -11 -7 -11 4 0 20 13 34 18 19 3 -7 -1
-17 -7 -23z m-394 -14 c12 -18 14 -28 6 -30 -8 -3 -9 -12 -1 -34 7 -22 7 -33
-3 -45 -10 -13 -10 -17 2 -25 19 -12 36 -11 44 1 9 14 45 12 45 -2 0 -7 5 -5
11 5 8 14 21 18 55 16 24 -2 47 1 51 6 4 4 3 5 -3 2 -7 -4 -23 2 -35 13 -16
13 -19 19 -10 20 11 0 9 4 -5 14 -19 14 -19 15 0 22 12 5 21 3 24 -4 2 -7 9
-12 16 -12 7 0 24 -5 38 -12 34 -17 36 -58 2 -58 -26 0 -30 -10 -13 -27 15
-15 -55 -27 -80 -13 -24 12 -44 13 -37 1 3 -5 -1 -12 -10 -15 -12 -4 -15 -2
-10 9 3 9 0 15 -9 15 -8 0 -15 -7 -15 -16 0 -11 -6 -14 -20 -9 -11 3 -20 2
-20 -3 0 -5 -15 -4 -35 2 -32 10 -50 36 -25 36 6 0 10 5 10 11 0 6 -7 9 -15 5
-17 -6 -40 28 -29 45 3 6 0 24 -6 40 -11 25 -10 32 5 49 25 28 51 25 72 -7z
m61 -10 c2 -8 -5 -13 -17 -13 -21 0 -35 13 -24 24 10 10 36 3 41 -11z m-565
-7 c3 -8 1 -17 -6 -19 -20 -6 -47 4 -47 19 0 19 46 18 53 0z m-148 -60 c0 -20
-3 -36 -7 -36 -5 0 -8 7 -8 15 0 8 -14 17 -35 21 -40 7 -47 30 -12 43 38 14
62 -2 62 -43z m547 32 c-7 -7 -12 -8 -12 -2 0 14 12 26 19 19 2 -3 -1 -11 -7
-17z m-2427 2 c3 -5 1 -10 -4 -10 -6 0 -11 5 -11 10 0 6 2 10 4 10 3 0 8 -4
11 -10z m531 -19 c-12 -19 -24 -12 -19 10 4 13 9 17 15 11 6 -6 7 -15 4 -21z
m904 12 c1 -17 1 -17 11 0 11 19 29 14 29 -9 0 -8 -8 -14 -17 -14 -15 0 -13
-4 7 -20 26 -19 23 -32 -8 -35 -9 0 -24 -5 -31 -10 -10 -6 -13 -4 -9 6 16 41
18 58 8 64 -13 8 -13 35 0 35 6 0 10 -8 10 -17z m90 -25 c0 -6 -6 -5 -15 2 -8
7 -15 14 -15 16 0 2 7 1 15 -2 8 -4 15 -11 15 -16z m1635 12 c3 -5 1 -10 -4
-10 -6 0 -11 5 -11 10 0 6 2 10 4 10 3 0 8 -4 11 -10z m-1542 -15 c-3 -9 -8
-14 -10 -11 -3 3 -2 9 2 15 9 16 15 13 8 -4z m-1203 -15 c0 -5 -4 -10 -10 -10
-5 0 -10 5 -10 10 0 6 5 10 10 10 6 0 10 -4 10 -10z m241 -11 c5 -11 6 -19 2
-20 -56 -8 -73 -6 -73 11 0 23 6 28 36 28 14 0 29 -9 35 -19z m1437 -3 c3 -15
-1 -17 -20 -11 -32 10 -35 15 -18 25 20 13 34 7 38 -14z m-93 4 c-3 -5 -10
-10 -16 -10 -5 0 -9 5 -9 10 0 6 7 10 16 10 8 0 12 -4 9 -10z m405 -15 c11
-13 8 -15 -14 -15 -25 0 -33 10 -19 23 10 11 19 8 33 -8z m-370 -5 c0 -5 -7
-10 -15 -10 -8 0 -15 5 -15 10 0 6 7 10 15 10 8 0 15 -4 15 -10z m1178 -2 c25
-25 13 -38 -33 -38 -30 0 -45 4 -45 13 0 19 21 37 45 37 12 0 26 -5 33 -12z
m-1248 -19 c0 -15 -4 -19 -16 -15 -9 3 -22 6 -30 6 -8 0 -14 7 -14 15 0 10 10
15 30 15 24 0 30 -4 30 -21z m-455 1 c-3 -5 -11 -10 -16 -10 -6 0 -7 5 -4 10
3 6 11 10 16 10 6 0 7 -4 4 -10z m828 3 c8 -13 -38 -42 -52 -34 -10 6 -9 12 4
25 17 17 41 21 48 9z m-1505 -23 c3 -12 2 -12 -8 -3 -7 6 -19 9 -26 6 -8 -3
-14 0 -14 7 0 16 43 8 48 -10z m1182 10 c0 -5 -4 -10 -9 -10 -6 0 -13 5 -16
10 -3 6 1 10 9 10 9 0 16 -4 16 -10z m-1236 -20 c7 -7 7 -13 0 -20 -13 -13
-107 18 -98 32 7 11 84 2 98 -12z m461 10 c-3 -5 -11 -10 -16 -10 -6 0 -7 5
-4 10 3 6 11 10 16 10 6 0 7 -4 4 -10z m142 -5 c17 -12 22 -12 26 -1 5 12 33
14 76 7 2 -1 -2 -8 -9 -16 -6 -8 -9 -19 -6 -24 11 -16 -9 -21 -35 -7 -13 7
-31 10 -38 8 -8 -3 -11 0 -7 7 4 6 -3 15 -18 21 -14 5 -26 12 -26 15 0 9 15 5
37 -10z m710 9 c-3 -3 -12 -4 -19 -1 -8 3 -5 6 6 6 11 1 17 -2 13 -5z m930 0
c-3 -3 -12 -4 -19 -1 -8 3 -5 6 6 6 11 1 17 -2 13 -5z m-977 -34 c8 -16 8 -20
-4 -20 -8 0 -16 6 -19 13 -3 9 -7 9 -19 -1 -9 -7 -23 -9 -33 -6 -17 7 -17 8 1
21 26 19 62 16 74 -7z m-900 -4 c0 -3 -4 -8 -10 -11 -5 -3 -10 -1 -10 4 0 6 5
11 10 11 6 0 10 -2 10 -4z m94 -15 c15 -16 15 -19 2 -24 -9 -4 -18 -2 -21 3
-4 6 -18 10 -32 10 -21 0 -24 2 -13 15 17 20 43 19 64 -4z m1416 9 c0 -5 -4
-10 -9 -10 -6 0 -13 5 -16 10 -3 6 1 10 9 10 9 0 16 -4 16 -10z m50 -5 c0 -8
-4 -15 -10 -15 -5 0 -10 7 -10 15 0 8 5 15 10 15 6 0 10 -7 10 -15z m-2570
-25 c37 -37 38 -52 3 -48 -22 2 -28 8 -26 24 2 17 -2 21 -17 17 -22 -6 -53 14
-44 28 11 19 54 8 84 -21z m2433 22 c4 -1 7 -11 7 -22 0 -18 -3 -19 -21 -9
-12 6 -30 9 -40 6 -22 -6 -37 12 -20 23 11 6 48 7 74 2z m-1453 -6 c0 -2 -8
-10 -17 -17 -16 -13 -17 -12 -4 4 13 16 21 21 21 13z m1708 -8 c-16 -5 -28
-13 -28 -18 0 -4 -9 -6 -20 -3 -43 11 -15 30 45 31 l30 0 -27 -10z m245 -2
c21 -17 9 -27 -23 -21 -28 5 -34 11 -25 24 8 15 26 13 48 -3z m-1858 -16 c3
-5 -3 -10 -15 -10 -12 0 -18 5 -15 10 3 6 10 10 15 10 5 0 12 -4 15 -10z
m1493 -11 c15 -24 10 -34 -13 -26 -15 6 -22 47 -7 47 4 0 13 -9 20 -21z m330
-11 c-6 -18 -28 -21 -28 -4 0 9 7 16 16 16 9 0 14 -5 12 -12z m-1208 -18 c0
-5 -4 -10 -10 -10 -5 0 -10 5 -10 10 0 6 5 10 10 10 6 0 10 -4 10 -10z"/>
<path d="M2657 2929 c-9 -5 -21 -8 -26 -5 -5 3 -14 -1 -21 -9 -7 -8 -15 -13
-19 -11 -3 2 -7 -7 -7 -20 -1 -13 2 -24 6 -24 4 0 11 -12 14 -26 4 -15 10 -24
13 -21 3 4 14 2 24 -3 19 -11 37 4 19 15 -6 4 -7 11 -4 17 4 6 1 14 -7 18 -10
7 -10 11 0 24 7 9 17 13 22 10 5 -3 9 -2 8 3 -4 21 2 34 13 27 7 -4 8 -3 4 4
-9 14 -16 15 -39 1z m-17 -34 c0 -8 -5 -17 -11 -21 -8 -4 -9 1 -5 17 7 24 7
24 -8 -1 -10 -16 -15 -20 -16 -9 0 18 20 40 32 33 4 -3 8 -11 8 -19z"/>
<path d="M2670 2870 c20 -13 33 -13 25 0 -3 6 -14 10 -23 10 -15 0 -15 -2 -2
-10z"/>
<path d="M1630 2570 c0 -5 5 -10 10 -10 6 0 10 5 10 10 0 6 -4 10 -10 10 -5 0
-10 -4 -10 -10z"/>
<path d="M3965 2490 c-3 -5 -1 -10 4 -10 6 0 11 5 11 10 0 6 -2 10 -4 10 -3 0
-8 -4 -11 -10z"/>
<path d="M3421 2474 c0 -11 3 -14 6 -6 3 7 2 16 -1 19 -3 4 -6 -2 -5 -13z"/>
<path d="M3221 2464 c0 -11 3 -14 6 -6 3 7 2 16 -1 19 -3 4 -6 -2 -5 -13z"/>
<path d="M2940 2455 c0 -8 5 -15 10 -15 6 0 10 7 10 15 0 8 -4 15 -10 15 -5 0
-10 -7 -10 -15z"/>
<path d="M2985 2461 c-3 -5 -1 -12 5 -16 5 -3 10 1 10 9 0 18 -6 21 -15 7z"/>
<path d="M3100 2455 c0 -8 2 -15 4 -15 2 0 6 7 10 15 3 8 1 15 -4 15 -6 0 -10
-7 -10 -15z"/>
<path d="M3140 2459 c0 -5 5 -7 10 -4 6 3 10 8 10 11 0 2 -4 4 -10 4 -5 0 -10
-5 -10 -11z"/>
<path d="M2911 2444 c0 -11 3 -14 6 -6 3 7 2 16 -1 19 -3 4 -6 -2 -5 -13z"/>
<path d="M3020 2450 c0 -5 5 -10 11 -10 5 0 7 5 4 10 -3 6 -8 10 -11 10 -2 0
-4 -4 -4 -10z"/>
<path d="M3235 2431 c-3 -5 -1 -12 5 -16 5 -3 10 1 10 9 0 18 -6 21 -15 7z"/>
<path d="M2971 2414 c0 -11 3 -14 6 -6 3 7 2 16 -1 19 -3 4 -6 -2 -5 -13z"/>
<path d="M3005 2419 c-10 -15 3 -25 16 -12 7 7 7 13 1 17 -6 3 -14 1 -17 -5z"/>
<path d="M3121 2414 c0 -11 3 -14 6 -6 3 7 2 16 -1 19 -3 4 -6 -2 -5 -13z"/>
<path d="M2895 2400 c3 -5 8 -10 11 -10 2 0 4 5 4 10 0 6 -5 10 -11 10 -5 0
-7 -4 -4 -10z"/>
<path d="M2930 2400 c0 -5 5 -10 10 -10 6 0 10 5 10 10 0 6 -4 10 -10 10 -5 0
-10 -4 -10 -10z"/>
<path d="M2860 2390 c0 -5 5 -10 10 -10 6 0 10 5 10 10 0 6 -4 10 -10 10 -5 0
-10 -4 -10 -10z"/>
<path d="M3140 2380 c0 -5 5 -10 10 -10 6 0 10 5 10 10 0 6 -4 10 -10 10 -5 0
-10 -4 -10 -10z"/>
<path d="M3180 2380 c0 -5 5 -10 10 -10 6 0 10 5 10 10 0 6 -4 10 -10 10 -5 0
-10 -4 -10 -10z"/>
<path d="M2972 2369 c2 -6 8 -10 13 -10 5 0 11 4 13 10 2 6 -4 11 -13 11 -9 0
-15 -5 -13 -11z"/>
<path d="M2895 2361 c-3 -5 -1 -12 5 -16 5 -3 10 1 10 9 0 18 -6 21 -15 7z"/>
<path d="M2932 2361 c4 -13 18 -16 19 -4 0 4 -5 9 -11 12 -7 2 -11 -2 -8 -8z"/>
<path d="M2960 2325 c0 -8 5 -15 10 -15 6 0 10 7 10 15 0 8 -4 15 -10 15 -5 0
-10 -7 -10 -15z"/>
<path d="M2880 2316 c0 -9 5 -16 10 -16 6 0 10 4 10 9 0 6 -4 13 -10 16 -5 3
-10 -1 -10 -9z"/>
<path d="M2920 2316 c0 -9 5 -16 10 -16 6 0 10 4 10 9 0 6 -4 13 -10 16 -5 3
-10 -1 -10 -9z"/>
<path d="M2226 2425 c4 -8 10 -15 15 -15 5 0 9 7 9 15 0 8 -7 15 -15 15 -9 0
-12 -6 -9 -15z"/>
<path d="M4216 285 c-3 -9 0 -15 9 -15 9 0 12 6 9 15 -4 8 -7 15 -9 15 -2 0
-5 -7 -9 -15z"/>
<path d="M4215 240 c-3 -5 -1 -10 4 -10 6 0 11 5 11 10 0 6 -2 10 -4 10 -3 0
-8 -4 -11 -10z"/>
<path d="M4464 2733 c-11 -9 -30 -12 -48 -9 -26 5 -28 4 -22 -17 3 -12 6 -30
6 -39 0 -14 9 -18 42 -18 33 0 39 -3 30 -12 -7 -7 -12 -33 -12 -58 0 -25 -7
-97 -14 -160 -8 -63 -20 -166 -27 -227 -8 -83 -15 -113 -25 -113 -10 0 -14
-13 -14 -41 0 -37 2 -40 23 -33 43 13 192 107 263 165 39 32 76 59 82 59 6 0
16 9 22 19 17 32 12 36 -15 11 -14 -13 -25 -20 -25 -16 0 5 -6 3 -14 -3 -11
-9 -15 -8 -20 5 -6 15 -8 15 -29 1 -13 -8 -34 -16 -48 -17 -28 -3 -89 18 -89
30 0 5 29 18 64 30 60 20 96 44 84 56 -3 2 -18 -1 -34 -7 -16 -7 -37 -11 -46
-10 -10 1 -18 -2 -18 -7 0 -5 -19 -9 -42 -8 -40 1 -43 3 -43 28 -1 23 7 31 45
48 74 34 134 70 117 70 -11 0 -18 13 -23 37 -6 31 -8 34 -14 18 -4 -11 -3 -28
2 -38 12 -22 10 -24 -25 -31 -14 -2 -30 -7 -34 -9 -5 -2 -17 -1 -28 4 -17 6
-17 8 -2 8 9 1 17 5 17 10 0 4 -10 6 -22 4 -13 -2 -30 1 -38 6 -13 9 -13 12 3
28 10 11 17 13 17 5 0 -33 47 7 92 78 12 19 30 44 40 54 10 11 18 24 18 30 0
5 -16 -8 -35 -30 l-35 -39 -19 23 c-11 12 -23 22 -27 22 -4 0 -3 -5 3 -11 6
-6 9 -17 6 -25 -6 -16 -33 -7 -33 12 0 7 -8 17 -17 23 -15 8 -15 14 -6 46 9
29 9 40 -1 50 -10 10 -16 10 -32 -2z"/>
<path d="M4355 2670 c-3 -5 1 -10 9 -10 9 0 16 5 16 10 0 6 -4 10 -9 10 -6 0
-13 -4 -16 -10z"/>
<path d="M4780 2614 c0 -14 4 -23 9 -20 5 3 7 15 4 26 -7 28 -13 25 -13 -6z"/>
<path d="M4392 2589 c2 -7 10 -15 17 -17 8 -3 12 1 9 9 -2 7 -10 15 -17 17 -8
3 -12 -1 -9 -9z"/>
<path d="M4723 2563 c-18 -7 -16 -23 2 -23 8 0 15 7 15 15 0 8 -1 15 -2 14 -2
0 -9 -3 -15 -6z"/>
<path d="M1434 2548 c-4 -7 -2 -14 4 -16 6 -2 8 -10 5 -18 -4 -12 -1 -12 22 0
15 8 34 12 41 9 17 -6 18 11 2 24 -19 14 -66 14 -74 1z"/>
<path d="M4390 2549 c0 -5 5 -7 10 -4 6 3 10 8 10 11 0 2 -4 4 -10 4 -5 0 -10
-5 -10 -11z"/>
<path d="M917 2528 c7 -13 181 -9 189 3 4 8 -23 10 -94 7 -55 -1 -98 -6 -95
-10z"/>
<path d="M4719 2493 c-13 -17 -13 -17 6 -3 11 8 22 16 24 17 2 2 0 3 -6 3 -6
0 -17 -8 -24 -17z"/>
<path d="M833 2424 c16 -31 44 -60 51 -53 2 2 -12 22 -31 44 -32 37 -34 37
-20 9z"/>
<path d="M660 2406 c0 -5 107 -87 135 -103 31 -19 40 -15 20 8 -35 38 -155
112 -155 95z"/>
<path d="M562 2378 c-13 -13 -16 -38 -4 -39 4 0 17 -2 29 -3 11 -1 32 -10 45
-19 12 -9 34 -25 48 -34 14 -9 44 -33 66 -53 49 -42 145 -100 194 -117 73 -26
46 -2 -147 125 -72 48 -147 102 -167 120 -39 35 -46 38 -64 20z"/>
<path d="M402 2334 c-38 -33 -57 -71 -31 -62 11 4 85 98 77 98 -3 0 -23 -16
-46 -36z"/>
<path d="M4725 2350 c-3 -6 1 -7 9 -4 18 7 21 14 7 14 -6 0 -13 -4 -16 -10z"/>
<path d="M335 2219 c-4 -11 -3 -44 1 -72 6 -44 8 -48 15 -27 19 64 3 161 -16
99z"/>
<path d="M541 2214 c-12 -15 -24 -39 -28 -53 -3 -14 -12 -35 -19 -46 -16 -22
-19 -89 -5 -81 5 4 7 -3 4 -14 -3 -10 -10 -18 -15 -17 -6 1 -11 -8 -13 -20 -2
-26 -44 -63 -62 -56 -46 18 35 -92 90 -122 86 -48 195 -31 212 32 3 13 23 32
47 44 31 16 38 23 27 30 -10 6 -5 9 16 9 18 0 44 12 64 29 l35 29 -41 20 c-22
12 -56 37 -74 56 -19 19 -61 62 -94 95 -33 34 -71 64 -85 68 -14 3 -28 10 -31
15 -3 5 -16 -3 -28 -18z"/>
<path d="M4352 2170 c-2 -23 1 -28 13 -23 9 3 15 14 13 26 -5 32 -23 30 -26
-3z"/>
<path d="M1488 2113 c-13 -3 -18 -14 -18 -38 0 -18 -3 -40 -6 -49 -3 -9 -2
-16 2 -16 23 1 34 20 37 63 1 26 2 46 2 46 0 -1 -8 -3 -17 -6z"/>
<path d="M794 2071 c22 -42 102 -92 135 -84 57 14 91 33 91 52 0 24 -20 32
-37 16 -16 -17 -108 0 -144 26 -15 10 -34 19 -43 19 -15 0 -15 -3 -2 -29z"/>
<path d="M1105 2040 c-3 -5 2 -11 12 -11 10 -1 31 -3 46 -5 24 -2 27 -1 17 12
-14 16 -66 19 -75 4z"/>
<path d="M4403 1944 c-31 -13 -48 -54 -23 -54 32 0 80 40 80 66 0 8 -25 3 -57
-12z"/>
<path d="M140 1915 c0 -44 23 -96 64 -142 42 -46 126 -104 126 -86 0 16 -55
63 -73 63 -21 0 -36 32 -19 38 20 6 14 34 -5 28 -19 -6 -55 16 -51 30 1 5 -8
27 -20 49 -15 28 -21 34 -22 20z"/>
<path d="M1127 1894 c-8 -8 3 -34 14 -34 5 0 9 9 9 20 0 19 -11 26 -23 14z"/>
<path d="M4422 1491 c-6 -17 -9 -31 -6 -31 7 0 25 52 20 57 -2 2 -8 -10 -14
-26z"/>
<path d="M1110 1501 c0 -5 5 -13 10 -16 6 -3 10 -2 10 4 0 5 -4 13 -10 16 -5
3 -10 2 -10 -4z"/>
<path d="M4330 1466 c0 -8 5 -18 10 -21 6 -3 10 3 10 14 0 12 -4 21 -10 21 -5
0 -10 -6 -10 -14z"/>
<path d="M4388 1411 c-22 -46 -23 -62 -3 -55 8 4 12 10 9 16 -3 5 0 23 6 39
18 43 8 43 -12 0z"/>
<path d="M4355 1412 c-5 -4 -11 -20 -13 -37 -2 -16 -1 -27 3 -24 5 6 26 69 22
69 -1 0 -6 -4 -12 -8z"/>
<path d="M4324 1325 c-4 -9 -4 -45 -1 -81 4 -43 3 -64 -5 -64 -6 0 -8 -11 -4
-30 3 -17 1 -30 -4 -30 -6 0 -10 -11 -10 -24 0 -23 2 -24 37 -14 36 10 79 7
116 -7 12 -5 17 -2 17 8 0 8 4 17 10 19 5 2 7 14 3 26 -4 18 -8 20 -14 10 -7
-10 -11 -10 -21 0 -10 10 -8 14 10 19 14 3 29 20 37 40 19 45 19 59 1 43 -8
-6 -13 -17 -10 -24 3 -7 -7 -18 -22 -25 -24 -10 -26 -10 -19 6 15 37 17 53 6
53 -5 0 -9 -6 -7 -12 1 -7 1 -10 -1 -5 -3 4 -9 5 -14 2 -5 -4 -6 1 -3 10 5 11
2 14 -10 9 -12 -4 -13 -10 -6 -24 14 -26 13 -30 -11 -30 -17 0 -19 3 -10 14
10 11 8 16 -9 21 -17 5 -19 9 -9 21 7 8 17 13 23 11 6 -2 17 2 24 10 8 7 18
11 23 8 5 -4 9 5 9 19 0 14 -4 26 -10 26 -5 0 -7 -7 -4 -15 4 -8 1 -15 -5 -15
-6 0 -11 6 -11 14 0 9 -12 14 -34 14 -19 0 -40 3 -45 7 -6 3 -14 -1 -17 -10z
m82 -166 c6 -5 14 -5 19 -1 4 4 3 -2 -3 -14 -15 -29 -42 -51 -42 -34 0 10 -3
10 -14 1 -12 -10 -15 -7 -14 21 0 18 2 36 5 40 4 8 31 0 49 -13z"/>
<path d="M1181 1284 c0 -11 3 -14 6 -6 3 7 2 16 -1 19 -3 4 -6 -2 -5 -13z"/>
<path d="M4522 1205 c0 -16 2 -22 5 -12 2 9 2 23 0 30 -3 6 -5 -1 -5 -18z"/>
<path d="M4551 1182 c1 -28 3 -31 6 -12 3 14 9 28 15 31 5 4 3 9 -6 12 -13 5
-16 -1 -15 -31z"/>
<path d="M4697 1163 c-4 -3 -7 -13 -7 -22 1 -13 3 -13 11 2 11 19 8 33 -4 20z"/>
<path d="M4560 1111 c0 -11 5 -23 10 -26 6 -3 10 3 10 14 0 11 -4 23 -10 26
-5 3 -10 -3 -10 -14z"/>
<path d="M4523 1113 c-14 -5 -18 -73 -4 -73 7 0 24 71 18 76 -1 1 -8 -1 -14
-3z"/>
<path d="M4611 1111 c-7 -5 -12 -13 -10 -18 2 -5 12 -1 22 9 18 19 12 24 -12
9z"/>
<path d="M3818 1036 l-48 -53 19 -38 c13 -28 19 -33 24 -21 4 9 2 16 -3 16 -5
0 -12 11 -16 25 -5 20 0 31 21 50 14 14 30 23 35 20 4 -3 11 2 14 11 5 12 14
14 34 10 l27 -7 -25 21 c-14 11 -27 19 -30 19 -3 -1 -26 -25 -52 -53z"/>
<path d="M4320 1054 c-21 -13 -22 -15 -5 -11 16 3 21 -2 23 -19 1 -13 -3 -24
-9 -24 -5 0 -8 -4 -4 -9 3 -5 1 -12 -5 -16 -5 -3 -10 1 -10 9 0 9 -4 16 -10
16 -16 0 -12 -25 9 -51 10 -13 20 -29 22 -36 3 -8 9 -8 23 3 18 13 18 14 2 14
-9 0 -14 5 -11 11 5 7 15 5 30 -5 21 -14 23 -14 28 6 7 25 1 38 -18 38 -7 0
-12 8 -10 18 2 9 4 20 4 24 1 3 19 4 41 1 42 -6 54 9 28 35 -17 17 -98 14
-128 -4z"/>
<path d="M3991 1038 c0 -9 -4 -25 -7 -35 -5 -14 -4 -15 4 -4 9 12 13 12 26 2
8 -7 20 -10 26 -6 15 9 -9 38 -26 31 -7 -3 -15 3 -17 12 -4 16 -5 16 -6 0z"/>
<path d="M4470 1029 c0 -5 5 -7 10 -4 6 3 10 8 10 11 0 2 -4 4 -10 4 -5 0 -10
-5 -10 -11z"/>
<path d="M3952 1018 c-7 -7 -12 -18 -12 -25 0 -7 -4 -13 -10 -13 -5 0 -10 7
-10 15 0 10 -10 14 -35 13 -19 -1 -35 -5 -35 -10 0 -4 5 -8 10 -8 6 0 10 -14
10 -30 0 -16 -3 -29 -7 -29 -21 3 -34 -2 -30 -13 5 -18 69 -10 85 10 7 9 12
11 12 4 0 -7 5 -12 11 -12 5 0 8 4 5 9 -7 10 24 25 33 16 3 -3 -1 -10 -9 -15
-9 -6 -10 -10 -3 -10 6 0 15 5 19 11 3 6 18 8 33 5 19 -5 22 -4 11 3 -9 5 -22
11 -30 13 -26 6 -42 28 -37 53 5 29 5 29 -11 13z"/>
<path d="M4603 1023 c-7 -2 -13 -14 -13 -26 l0 -21 20 22 c28 30 26 39 -7 25z"/>
<path d="M4560 980 c-8 -5 -11 -12 -7 -16 4 -4 13 -2 19 4 15 15 7 24 -12 12z"/>
<path d="M4630 970 c0 -5 9 -14 20 -20 22 -12 27 -1 8 18 -14 14 -28 16 -28 2z"/>
<path d="M4755 960 c-3 -5 1 -10 10 -10 9 0 13 5 10 10 -3 6 -8 10 -10 10 -2
0 -7 -4 -10 -10z"/>
<path d="M3599 914 l-34 -36 63 7 c41 5 62 3 62 -4 0 -6 21 -8 56 -6 69 5 83
15 23 16 -24 0 -38 3 -31 6 24 10 11 30 -27 41 -59 18 -74 15 -112 -24z"/>
<path d="M4437 923 c-13 -12 -7 -33 8 -33 8 0 15 9 15 20 0 20 -11 26 -23 13z"/>
<path d="M3198 913 c7 -3 16 -2 19 1 4 3 -2 6 -13 5 -11 0 -14 -3 -6 -6z"/>
<path d="M3618 863 c7 -3 16 -2 19 1 4 3 -2 6 -13 5 -11 0 -14 -3 -6 -6z"/>
<path d="M4520 845 c0 -8 5 -15 10 -15 6 0 10 7 10 15 0 8 -4 15 -10 15 -5 0
-10 -7 -10 -15z"/>
<path d="M4328 843 c7 -3 16 -2 19 1 4 3 -2 6 -13 5 -11 0 -14 -3 -6 -6z"/>
<path d="M4425 840 c-3 -5 1 -10 10 -10 9 0 13 5 10 10 -3 6 -8 10 -10 10 -2
0 -7 -4 -10 -10z"/>
<path d="M4395 830 c3 -5 8 -10 11 -10 2 0 4 5 4 10 0 6 -5 10 -11 10 -5 0 -7
-4 -4 -10z"/>
<path d="M4640 775 c0 -8 3 -15 6 -15 3 0 12 7 20 15 14 13 13 15 -5 15 -12 0
-21 -6 -21 -15z"/>
<path d="M4557 694 c6 -15 23 -19 23 -5 0 5 -7 11 -14 14 -10 4 -13 1 -9 -9z"/>
<path d="M4732 701 c4 -13 18 -16 19 -4 0 4 -5 9 -11 12 -7 2 -11 -2 -8 -8z"/>
<path d="M4860 690 c0 -21 16 -44 23 -33 4 6 0 19 -8 29 -11 15 -14 16 -15 4z"/>
<path d="M5096 675 c-3 -9 0 -15 9 -15 16 0 20 16 6 24 -5 3 -11 -1 -15 -9z"/>
<path d="M2028 653 c6 -2 18 -2 25 0 6 3 1 5 -13 5 -14 0 -19 -2 -12 -5z"/>
<path d="M121 643 c-1 -17 16 -25 25 -12 4 7 3 9 -4 5 -5 -3 -13 0 -15 6 -4 9
-6 10 -6 1z"/>
<path d="M1670 639 l-45 -6 58 -1 c31 -1 57 0 57 2 0 9 -28 11 -70 5z"/>
<path d="M1477 623 c18 -2 50 -2 70 0 21 2 7 4 -32 4 -38 0 -55 -2 -38 -4z"/>
<path d="M5050 614 c0 -8 5 -12 10 -9 6 3 10 10 10 16 0 5 -4 9 -10 9 -5 0
-10 -7 -10 -16z"/>
<path d="M77 587 c-3 -8 1 -14 8 -14 7 0 11 6 8 14 -3 7 -6 13 -8 13 -2 0 -5
-6 -8 -13z"/>
<path d="M50 520 c-6 -11 -8 -20 -6 -20 3 0 10 9 16 20 6 11 8 20 6 20 -3 0
-10 -9 -16 -20z"/>
<path d="M25 419 c-6 -8 -4 -10 5 -4 10 6 12 4 6 -11 -6 -15 -5 -17 5 -6 9 9
10 15 2 23 -8 8 -13 7 -18 -2z"/>
<path d="M285 259 c-3 -4 2 -6 10 -5 21 3 28 13 10 13 -9 0 -18 -4 -20 -8z"/>
<path d="M3415 121 c-3 -6 -1 -19 4 -28 8 -15 11 -15 12 -3 1 8 1 18 0 22 0 4
10 2 24 -4 22 -10 46 -5 34 6 -12 11 -68 16 -74 7z"/>
<path d="M3126 41 c-19 -7 -19 -8 3 -14 13 -3 20 -10 16 -16 -4 -7 7 -11 29
-11 19 0 38 5 41 10 8 13 45 13 45 0 0 -6 44 -10 113 -9 61 0 106 3 99 6 -6 2
-10 8 -7 13 7 11 -68 21 -78 11 -5 -5 -25 -4 -45 1 -46 11 -49 12 -89 3 -24
-5 -33 -4 -33 5 0 10 -3 10 -14 1 -11 -9 -20 -9 -35 -2 -11 6 -21 11 -23 10
-2 0 -12 -4 -22 -8z m49 -21 c3 -5 1 -10 -4 -10 -6 0 -11 5 -11 10 0 6 2 10 4
10 3 0 8 -4 11 -10z"/>
</g>
</svg>
